<svg width="16" height="16" viewBox="0 0 16 16" fill="none" xmlns="http://www.w3.org/2000/svg">
<path opacity="0.6" d="M0.00101089 2.52418C0.018961 2.57656 0.0394182 2.62812 0.0548639 2.68091C0.107561 2.86585 0.200911 3.03702 0.328259 3.18222C0.455609 3.32741 0.613826 3.44306 0.79161 3.5209C0.969394 3.59874 1.16237 3.63686 1.35678 3.63254C1.55119 3.62822 1.74224 3.58157 1.91631 3.49592C1.95267 3.47344 1.99494 3.46212 2.03781 3.46337C2.08068 3.46462 2.12222 3.47839 2.15718 3.50293C2.88355 3.93491 3.61229 4.36317 4.34339 4.78772C4.37727 4.80399 4.40533 4.83007 4.42383 4.86249C4.44232 4.89491 4.45037 4.93213 4.44692 4.96919C4.45047 5.28064 4.56566 5.58077 4.77203 5.81623C4.9784 6.05169 5.26257 6.20723 5.57406 6.25522C6.22195 6.35009 6.82642 5.9797 7.04392 5.36308C7.0711 5.28967 7.12356 5.22806 7.19212 5.18903C7.86005 4.85495 8.53299 4.52911 9.20259 4.19915C9.28024 4.16038 9.32783 4.16987 9.3942 4.22225C9.80707 4.5419 10.2621 4.59593 10.7443 4.40002C10.7772 4.38201 10.8151 4.37464 10.8525 4.37893C10.8899 4.38322 10.9251 4.39895 10.953 4.42393C11.7395 5.00741 12.528 5.58856 13.3187 6.16737C13.4001 6.22676 13.4064 6.27831 13.3834 6.37359C13.2507 6.91926 13.3951 7.38988 13.8426 7.73881C14.2901 8.08774 14.7802 8.13023 15.2782 7.87492C15.783 7.61631 16.0238 7.18241 15.9959 6.62189C15.9504 5.72151 14.9768 5.13706 14.1449 5.50827C14.0242 5.5623 13.9524 5.54416 13.856 5.47239C13.0996 4.90953 12.3403 4.34983 11.5783 3.79329C11.4928 3.7306 11.4623 3.68152 11.4948 3.56809C11.5467 3.39895 11.5634 3.22122 11.544 3.04553C11.5247 2.86985 11.4696 2.69983 11.3822 2.54567C11.2947 2.3915 11.1767 2.25636 11.0351 2.14834C10.8936 2.04032 10.7314 1.96163 10.5583 1.917C10.3853 1.87237 10.2049 1.86271 10.0279 1.8886C9.85098 1.91449 9.68116 1.9754 9.52861 2.06768C9.37606 2.15996 9.24393 2.28171 9.14014 2.42564C9.03635 2.56956 8.96303 2.73269 8.92456 2.90528C8.89743 3.02366 8.90828 3.15028 8.89409 3.27237C8.88866 3.31362 8.87154 3.37837 8.84024 3.39404C8.21405 3.70627 7.58787 4.01272 6.94749 4.32577C6.71747 3.94508 6.39018 3.70709 5.95018 3.64852C5.51019 3.58995 5.1328 3.73967 4.81011 4.04324L2.59759 2.74278C2.75622 2.16535 2.63224 1.67412 2.17137 1.2992C1.41452 0.682995 0.277372 1.06699 0.0377522 2.00861C0.0277328 2.04738 0.0131168 2.08533 0.00101089 2.12328V2.52418Z" fill="#6B7280"/>
<path d="M0.000406265 15.6138C0.123139 15.8588 0.321849 15.9396 0.596117 15.931C1.11126 15.9149 1.62682 15.9268 2.14071 15.926C2.50055 15.926 2.66211 15.766 2.66211 15.4071C2.66211 12.5315 2.66211 9.65606 2.66211 6.78072C2.66211 6.43508 2.49513 6.26886 2.14614 6.26762C1.62557 6.26515 1.10249 6.27423 0.58401 6.26391C0.311411 6.25855 0.108527 6.34104 -0.000429153 6.59882L0.000406265 15.6138Z" fill="#6B7280"/>
<path d="M8.88838 11.5421C8.88838 12.807 8.88838 14.0718 8.88838 15.3367C8.88692 15.4035 8.88984 15.4703 8.89715 15.5367C8.92721 15.7677 9.09127 15.9211 9.32755 15.9232C9.92117 15.9273 10.5147 15.9273 11.108 15.9232C11.356 15.9232 11.5275 15.7582 11.5547 15.5157C11.5583 15.4695 11.5594 15.4231 11.558 15.3767C11.558 12.8148 11.558 10.2529 11.558 7.69107C11.5591 7.6498 11.5582 7.6085 11.5551 7.56733C11.5313 7.31615 11.3581 7.15159 11.1022 7.14994C10.5177 7.14664 9.93452 7.14664 9.35259 7.14994C9.08375 7.14994 8.91593 7.30956 8.89339 7.57352C8.88796 7.62962 8.88922 7.68653 8.88922 7.74304L8.88838 11.5421Z" fill="#6B7280"/>
<path d="M7.11286 12.4197C7.11286 11.438 7.11286 10.4561 7.11286 9.47393C7.11286 9.05447 6.96424 8.90764 6.54178 8.90723C6.0162 8.90723 5.49063 8.90723 4.96505 8.90723C4.60854 8.90723 4.44323 9.07221 4.44281 9.43022C4.44281 11.4199 4.44281 13.4096 4.44281 15.3992C4.44281 15.7642 4.60729 15.9263 4.97549 15.9267C5.50649 15.9267 6.03735 15.9267 6.56808 15.9267C6.9559 15.9267 7.11078 15.7704 7.11286 15.3811C7.11342 14.3939 7.11342 13.4068 7.11286 12.4197Z" fill="#6B7280"/>
<path d="M13.3358 13.2965C13.3358 13.996 13.3358 14.6954 13.3358 15.3946C13.3358 15.7745 13.4911 15.9267 13.8752 15.9271C14.4165 15.9271 14.9578 15.9271 15.4991 15.9271C15.8263 15.9271 16 15.7559 16 15.4321C16 14.0075 16 12.5829 16 11.1583C16 10.8411 15.833 10.6667 15.5132 10.6634C14.9514 10.6584 14.3892 10.6584 13.8267 10.6634C13.5032 10.6659 13.3383 10.8333 13.337 11.1526C13.3341 11.8669 13.3358 12.5817 13.3358 13.2965Z" fill="#6B7280"/>
</svg>
