<svg width="16" height="17" viewBox="0 0 16 17" fill="none" xmlns="http://www.w3.org/2000/svg">
<path d="M10.8588 0.0126262V0.240917C10.8588 1.2482 10.8588 2.25515 10.8588 3.26177C10.8588 4.16704 11.4852 4.74447 12.464 4.74744C13.5549 4.74744 14.6454 4.74744 15.7356 4.74744H15.9984V4.96386C15.9984 8.47895 15.9984 11.9939 15.9984 15.5086C15.9984 16.2683 15.5441 16.8239 14.8002 16.9715C14.6686 16.9936 14.5349 17.0031 14.4012 16.9998C10.4681 16.9998 6.53346 16.9998 2.59717 16.9998C1.63178 16.9998 1.00054 16.4184 1 15.527C1 10.8445 1 6.1618 1 1.47897C1 0.59203 1.62481 0.00321895 2.57143 0.0022285C5.26808 -0.000742834 7.96474 -0.000742834 10.6614 0.0022285C10.7199 0.00173328 10.7783 0.00816924 10.8588 0.0126262ZM8.5193 8.30562H4.3869C4.31289 8.30562 4.2394 8.30562 4.16593 8.30909C4.07403 8.31445 3.98452 8.33831 3.90368 8.37902C3.82284 8.41973 3.75263 8.47628 3.69799 8.54472C3.64335 8.61316 3.60561 8.69181 3.5874 8.77515C3.56919 8.8585 3.57096 8.94452 3.5926 9.02716C3.66822 9.33024 3.92405 9.49168 4.33542 9.49168C7.11109 9.49168 9.8864 9.49168 12.6614 9.49168C12.7615 9.49381 12.8615 9.48416 12.959 9.46296C13.0494 9.43989 13.1332 9.39855 13.2042 9.34195C13.2752 9.28535 13.3317 9.21489 13.3696 9.13566C13.4076 9.05643 13.426 8.97041 13.4235 8.88382C13.421 8.79723 13.3978 8.71221 13.3554 8.63494C13.2213 8.39525 12.9998 8.30413 12.7118 8.30463C11.3146 8.3081 9.91697 8.30562 8.5193 8.30562ZM8.5193 10.6782H4.3869C4.31289 10.6782 4.2394 10.6782 4.16593 10.6817C4.07398 10.6869 3.9844 10.7107 3.90346 10.7513C3.82252 10.7919 3.75219 10.8484 3.6974 10.9168C3.64261 10.9852 3.60469 11.0638 3.58631 11.1472C3.56793 11.2305 3.56952 11.3166 3.59099 11.3993C3.66661 11.7028 3.92244 11.8643 4.33327 11.8643C7.10894 11.8643 9.88425 11.8643 12.6592 11.8643C12.7593 11.8662 12.8593 11.8566 12.9569 11.8356C13.0473 11.8126 13.1311 11.7713 13.2022 11.7148C13.2733 11.6583 13.3299 11.5879 13.368 11.5088C13.406 11.4296 13.4246 11.3436 13.4223 11.2571C13.4201 11.1705 13.397 11.0854 13.3548 11.0081C13.2213 10.7684 12.9998 10.6762 12.7112 10.6772C11.3157 10.6827 9.91805 10.6787 8.52038 10.6787L8.5193 10.6782ZM8.49464 14.2374C9.87264 14.2374 11.2503 14.2374 12.6276 14.2374C12.7344 14.2402 12.8411 14.2312 12.9456 14.2107C13.0398 14.1886 13.1273 14.1469 13.2012 14.0886C13.2751 14.0303 13.3335 13.9571 13.3718 13.8746C13.4102 13.7922 13.4274 13.7027 13.4222 13.613C13.417 13.5234 13.3896 13.4361 13.342 13.3579C13.1977 13.1222 12.9665 13.0499 12.6839 13.0499C9.89498 13.0538 7.10608 13.0546 4.31718 13.0523C4.25657 13.0523 4.19651 13.0523 4.13644 13.0578C4.04998 13.0664 3.96639 13.0915 3.8909 13.1314C3.81542 13.1713 3.74966 13.2251 3.69775 13.2895C3.64585 13.354 3.60891 13.4276 3.58925 13.5058C3.56958 13.5841 3.56762 13.6652 3.58348 13.7442C3.64838 14.0586 3.90527 14.2394 4.30055 14.2394C5.69965 14.2394 7.09804 14.2389 8.49571 14.2379L8.49464 14.2374ZM8.50482 5.93301C8.08381 5.93301 7.66225 5.92955 7.2407 5.93301C6.854 5.93698 6.57726 6.18062 6.57082 6.51044C6.56439 6.84026 6.84381 7.11213 7.2364 7.1156C8.07915 7.12253 8.92209 7.12253 9.76519 7.1156C10.1572 7.11213 10.4345 6.84322 10.4249 6.50598C10.4158 6.17765 10.1363 5.93698 9.74964 5.93301C9.33452 5.92856 8.92101 5.93351 8.5059 5.93351L8.50482 5.93301ZM5.49334 6.5352C5.49522 6.37995 5.44727 6.22765 5.35551 6.09754C5.26376 5.96743 5.13233 5.86533 4.97779 5.80412C4.82326 5.74291 4.65254 5.72535 4.4872 5.75363C4.32186 5.78191 4.16931 5.85477 4.04878 5.96303C3.92824 6.07129 3.84513 6.21009 3.80994 6.36192C3.77475 6.51375 3.78906 6.67179 3.85105 6.81612C3.91304 6.96045 4.01993 7.0846 4.15825 7.17288C4.29658 7.26117 4.46012 7.30965 4.62825 7.3122C4.85461 7.31525 5.07303 7.23516 5.23545 7.08954C5.39788 6.94393 5.49102 6.74471 5.49441 6.5357L5.49334 6.5352Z" fill="#2D3370"/>
<path opacity="0.6" d="M12.1955 0.103271C12.343 0.204792 12.5055 0.291453 12.6342 0.409316C13.6092 1.30072 14.5795 2.19641 15.5449 3.09639C15.6736 3.21624 15.768 3.36728 15.9079 3.54209C15.7964 3.5515 15.7417 3.55992 15.6864 3.56041C14.6138 3.56041 13.5429 3.56041 12.4738 3.56041C12.2057 3.56041 12.1451 3.50445 12.1445 3.25486C12.1445 2.2664 12.1445 1.27777 12.1445 0.28898V0.140413L12.1955 0.103271Z" fill="#424CA8"/>
</svg>
