<svg width="11" height="12" viewBox="0 0 11 12" fill="none" xmlns="http://www.w3.org/2000/svg">
<path d="M1 6.00008H7C7.70724 6.00008 8.38552 6.28103 8.88562 6.78113C9.38571 7.28123 9.66667 7.9595 9.66667 8.66675C9.66667 9.37399 9.38571 10.0523 8.88562 10.5524C8.38552 11.0525 7.70724 11.3334 7 11.3334H1.66667C1.48986 11.3334 1.32029 11.2632 1.19526 11.1382C1.07024 11.0131 1 10.8436 1 10.6667V1.33341C1 1.1566 1.07024 0.987035 1.19526 0.86201C1.32029 0.736986 1.48986 0.666748 1.66667 0.666748H6.33333C7.04058 0.666748 7.71885 0.947699 8.21895 1.4478C8.71905 1.94789 9 2.62617 9 3.33341C9 4.04066 8.71905 4.71894 8.21895 5.21903C7.71885 5.71913 7.04058 6.00008 6.33333 6.00008" stroke="#6B7280" stroke-width="1.33" stroke-linecap="round" stroke-linejoin="round"/>
</svg>
