<svg width="18" height="16" viewBox="0 0 18 16" fill="none" xmlns="http://www.w3.org/2000/svg">
<path d="M0.00392151 7.8277C0.240992 8.09418 0.476103 8.36158 0.715132 8.62625C0.911057 8.84741 1.10698 8.86192 1.34895 8.67701L8.78332 2.94218C9.00276 2.77268 9.00079 2.77268 9.22611 2.94218C11.6987 4.85107 14.1719 6.75935 16.6458 8.66703C16.8956 8.8601 17.0856 8.84831 17.2933 8.61717C17.4827 8.41051 17.6708 8.20296 17.8576 7.99448C18.0643 7.76244 18.0476 7.59113 17.7968 7.39716L10.7788 1.98864C10.4849 1.76385 10.191 1.53544 9.89715 1.31337C9.64824 1.11138 9.32845 1 8.99737 1C8.66629 1 8.3465 1.11138 8.09758 1.31337C7.26294 1.95329 6.43222 2.59775 5.60248 3.24039C5.55949 3.28488 5.50627 3.31987 5.44672 3.3428C5.40361 3.3002 5.42516 3.25216 5.42516 3.20412C5.42516 2.62402 5.42516 2.04392 5.42516 1.46382C5.42516 1.1348 5.30859 1.02965 4.95005 1.02965C4.31133 1.02965 3.67295 1.02965 3.03488 1.02965C2.69299 1.02965 2.56858 1.14567 2.56858 1.4611C2.56858 2.78355 2.56858 4.106 2.56858 5.42844C2.57214 5.47574 2.56279 5.52312 2.54139 5.5662C2.52 5.60928 2.48724 5.64668 2.44613 5.67498C1.70945 6.23514 0.976688 6.80166 0.24099 7.36454C0.138994 7.43296 0.0563278 7.52312 0 7.62739L0.00392151 7.8277Z" fill="#6B7280"/>
<path d="M15.4329 11.1615C15.4329 10.3539 15.4329 9.54632 15.4329 8.73871C15.4363 8.6912 15.4268 8.64366 15.4053 8.60043C15.3837 8.5572 15.3508 8.51966 15.3095 8.49126C13.2601 6.93345 11.214 5.37233 9.17114 3.80787C9.03791 3.70545 8.96248 3.70454 8.82925 3.80787C6.78641 5.37354 4.7403 6.93466 2.69093 8.49126C2.64958 8.51968 2.61654 8.5572 2.59482 8.6004C2.57309 8.64361 2.56336 8.69114 2.56651 8.73871C2.56651 10.3322 2.56651 11.9253 2.56651 13.5182C2.56651 13.9895 2.8604 14.2605 3.37764 14.2614C4.71875 14.2614 6.05985 14.2614 7.40194 14.2614C7.55182 14.2614 7.56848 14.2116 7.56848 14.0947C7.56848 12.881 7.56848 11.6673 7.5626 10.4536C7.5626 10.3322 7.58513 10.2878 7.73207 10.2887C8.57455 10.2959 9.41768 10.2959 10.2615 10.2887C10.4045 10.2887 10.4329 10.3277 10.4329 10.4518C10.427 11.6655 10.4329 12.8792 10.426 14.0938C10.426 14.2288 10.4643 14.2623 10.6092 14.2614C11.9386 14.256 13.2689 14.2614 14.5983 14.2614C15.1439 14.2614 15.428 13.995 15.429 13.4874L15.4329 11.1615Z" fill="#A8ACBA"/>
</svg>
