<svg width="20" height="19" viewBox="0 0 20 19" fill="none" xmlns="http://www.w3.org/2000/svg">
<path d="M14.166 1.83318C14.3849 1.61431 14.6447 1.44069 14.9307 1.32224C15.2167 1.20379 15.5232 1.14282 15.8327 1.14282C16.1422 1.14282 16.4487 1.20379 16.7347 1.32224C17.0206 1.44069 17.2805 1.61431 17.4993 1.83318C17.7182 2.05205 17.8918 2.31188 18.0103 2.59785C18.1287 2.88382 18.1897 3.19032 18.1897 3.49984C18.1897 3.80937 18.1287 4.11587 18.0103 4.40184C17.8918 4.68781 17.7182 4.94764 17.4993 5.16651L6.24935 16.4165L1.66602 17.6665L2.91602 13.0832L14.166 1.83318Z" stroke="#6B7280" stroke-width="1.66667" stroke-linecap="round" stroke-linejoin="round"/>
</svg>
