<svg width="16" height="17" viewBox="0 0 16 17" fill="none" xmlns="http://www.w3.org/2000/svg">
<path d="M14.5802 0C14.673 0.0266351 14.7667 0.0504782 14.8585 0.0805201C16.0234 0.461464 16.3824 1.94343 15.5316 2.88743C15.2348 3.21696 14.9146 3.5245 14.6054 3.84226C14.2063 4.25201 14.2066 4.73021 14.6054 5.14119C14.6357 5.17216 14.666 5.20313 14.6963 5.2341C14.9561 5.51501 14.9583 5.87489 14.6924 6.15177C14.3437 6.51537 13.9916 6.87526 13.636 7.23143C13.3586 7.51017 13.006 7.5049 12.7264 7.22647C12.56 7.06015 12.396 6.89136 12.2304 6.72443C12.2238 6.7173 12.2113 6.71606 12.1931 6.70863C12.1534 6.74765 12.1104 6.78822 12.0688 6.83035C10.6408 8.28887 9.21271 9.74761 7.78466 11.2066C7.30561 11.6965 6.75046 12.0555 6.0998 12.2596C5.57998 12.4223 5.10866 12.7162 4.72936 13.1141C4.34521 13.5111 3.95773 13.9051 3.58662 14.2854L2.01758 12.6814C2.27772 12.4166 2.5603 12.136 2.83621 11.8477C3.06603 11.6061 3.32132 11.3784 3.50324 11.1043C3.71239 10.79 3.88228 10.4502 4.00897 10.0928C4.23394 9.44957 4.56563 8.88962 5.03983 8.40802C6.47132 6.95258 7.89998 5.49447 9.32581 4.03367C9.37581 3.98784 9.42813 3.94473 9.48256 3.90451C9.29731 3.71869 9.13176 3.55206 8.96864 3.38451C8.65787 3.06582 8.65726 2.71554 8.96682 2.39808C9.29549 2.06112 9.62476 1.72477 9.95464 1.38905C10.2694 1.06819 10.625 1.06231 10.9346 1.39339C11.1968 1.67398 11.4976 1.80994 11.8675 1.68946C12.0043 1.63981 12.1289 1.56045 12.2328 1.45687C12.5286 1.17276 12.8161 0.879885 13.0954 0.578227C13.3811 0.268516 13.7321 0.0922876 14.1293 0.0015425L14.5802 0ZM9.86307 4.33997L6.0804 8.20453C6.10442 8.20918 6.12874 8.21197 6.15316 8.2129C7.37717 8.2129 8.60087 8.21506 9.82487 8.20918C9.90277 8.20206 9.97575 8.1672 10.031 8.11069C10.5938 7.54361 11.1513 6.97127 11.7101 6.39954C11.7432 6.36609 11.7726 6.32862 11.7896 6.3088L9.86307 4.33997Z" fill="#2D3370"/>
<path opacity="0.6" d="M2.26512 17.0001C1.74544 16.9691 1.34887 16.7359 1.12935 16.25C0.909838 15.764 0.969875 15.2939 1.30824 14.8872C1.54201 14.6063 1.81124 14.3548 2.07078 14.0969C2.19205 13.9758 2.3388 13.9761 2.4622 14.0984C2.72204 14.3564 2.99128 14.6076 3.22444 14.8891C3.56129 15.2961 3.61859 15.7671 3.40029 16.2518C3.18199 16.7365 2.78268 16.9707 2.26512 17.0001Z" fill="#424CA8"/>
</svg>
