<svg width="16" height="16" viewBox="0 0 16 16" fill="none" xmlns="http://www.w3.org/2000/svg">
<path d="M-8.01086e-05 7.33151C0.0492444 7.6567 0.0895958 7.98368 0.151476 8.30622C0.201049 8.54302 0.264379 8.77679 0.341152 9.00636C0.379839 9.13974 0.470384 9.25245 0.592877 9.31975C0.715371 9.38705 0.859815 9.40344 0.994495 9.36532C1.27699 9.28846 1.43797 9.00637 1.36623 8.70827C1.29448 8.41017 1.20256 8.11119 1.15054 7.80732C0.992211 6.89729 1.09139 5.96159 1.43708 5.10401C1.87293 4.00314 2.59531 3.12928 3.62306 2.52331C3.95175 2.32962 4.31406 2.1919 4.66382 2.03463C4.92075 1.91868 5.06245 1.68722 5.01403 1.4451C4.94721 1.11146 4.62974 0.919109 4.30599 1.03284C3.04462 1.47487 2.00565 2.21767 1.2187 3.29588C0.631108 4.10083 0.241409 5.03062 0.080646 6.01118C0.049706 6.19288 0.0263758 6.37591 -8.01086e-05 6.55806V7.33151Z" fill="#6B7280"/>
<path d="M9.86385 13.9314H10.6374C11.1306 13.9314 11.627 13.9399 12.1211 13.9266C12.4505 13.9189 12.7633 13.7823 12.9913 13.5467C13.2193 13.3111 13.3438 12.9956 13.3377 12.6693C13.3393 12.3664 13.2238 12.0744 13.0148 11.8532C12.6619 11.4778 12.348 11.0771 12.1234 10.6093C11.8345 10.0007 11.6851 9.3364 11.6857 8.6639C11.6808 8.17966 11.6969 7.6923 11.6508 7.21161C11.5162 5.81442 10.4517 4.56073 9.09484 4.17156C8.94821 4.1298 8.88723 4.07649 8.89305 3.91256C8.90816 3.57192 8.90231 3.2307 8.87556 2.89077C8.8361 2.45228 8.44196 2.12665 7.99714 2.12843C7.54514 2.12843 7.15547 2.46606 7.12228 2.91298C7.09672 3.25683 7.10346 3.6038 7.10615 3.94899C7.10615 4.06361 7.08059 4.11737 6.95862 4.15335C6.20836 4.37022 5.54752 4.81861 5.07226 5.43329C4.597 6.04798 4.33214 6.79688 4.31617 7.57102C4.30675 7.90066 4.30899 8.23119 4.31347 8.56127C4.33007 9.78298 3.93412 10.8479 3.08305 11.7386C2.86647 11.9656 2.71623 12.2184 2.67184 12.5347C2.57678 13.2166 3.12878 13.9008 3.82515 13.919C4.53274 13.9381 5.24123 13.9266 5.94926 13.9279H6.14433C6.16854 14.5245 6.39588 15.0097 6.86178 15.3739C7.19131 15.6327 7.60091 15.7708 8.02135 15.7649C8.83297 15.7707 9.80152 15.1523 9.86385 13.9314Z" fill="#A8ACBA"/>
<path d="M16 7.12805C15.9686 5.36346 15.4171 3.94583 14.3265 2.74501C13.6184 1.96086 12.7168 1.3724 11.7101 1.03728C11.4123 0.936882 11.124 1.06616 11.0164 1.33983C10.9088 1.61349 11.037 1.89381 11.3218 2.02754C11.7199 2.21457 12.1379 2.37317 12.506 2.60507C13.7396 3.38829 14.496 4.51227 14.8086 5.92723C15.0027 6.80641 14.9494 7.67804 14.6835 8.53768C14.6669 8.59188 14.6494 8.64608 14.6359 8.70072C14.5624 8.99971 14.7176 9.27826 15 9.36134C15.0662 9.38227 15.136 9.38976 15.2052 9.38338C15.2744 9.37699 15.3415 9.35686 15.4027 9.32419C15.4638 9.29151 15.5177 9.24697 15.5611 9.1932C15.6045 9.13943 15.6365 9.07755 15.6552 9.01126C15.7667 8.63643 15.8583 8.25607 15.9296 7.87174C15.983 7.5812 15.987 7.27955 16 7.12805Z" fill="#6B7280"/>
<path d="M13.8379 6.86627C13.8092 5.98147 13.5113 5.12591 12.9831 4.41184C12.455 3.69777 11.7213 3.15853 10.8784 2.86486C10.5833 2.76134 10.2923 2.88085 10.1784 3.15229C10.1491 3.21748 10.1338 3.28802 10.1334 3.35941C10.1331 3.43079 10.1478 3.50146 10.1766 3.56691C10.2054 3.63236 10.2476 3.69116 10.3005 3.73955C10.3535 3.78795 10.4161 3.82488 10.4843 3.84799C10.986 4.03991 11.4474 4.29226 11.8142 4.6872C12.6577 5.59215 12.9379 6.64592 12.6388 7.84586C12.6065 7.94903 12.5806 8.05408 12.5613 8.1604C12.5428 8.29222 12.5761 8.42603 12.6544 8.53418C12.7327 8.64233 12.8499 8.71655 12.9819 8.74149C13.1078 8.77026 13.2401 8.75098 13.3523 8.68751C13.4646 8.62404 13.5486 8.52102 13.5877 8.39896C13.6769 8.08738 13.7487 7.7712 13.8029 7.45181C13.8356 7.26034 13.8262 7.06175 13.8379 6.86627Z" fill="#6B7280"/>
<path d="M2.16099 7.03784C2.17525 7.4976 2.2582 7.95272 2.40716 8.38838C2.42786 8.45385 2.46144 8.51462 2.50595 8.56719C2.55045 8.61975 2.60501 8.66307 2.66648 8.69466C2.72796 8.72625 2.79514 8.74549 2.86415 8.75125C2.93316 8.75701 3.00262 8.74919 3.06856 8.72824C3.3542 8.63939 3.49948 8.37061 3.42729 8.06629C3.37303 7.83572 3.30399 7.60738 3.2735 7.3737C3.08203 5.92009 3.9461 4.47226 5.31957 3.93027C5.39177 3.90183 5.46485 3.87473 5.5357 3.84141C5.81281 3.7148 5.93478 3.4327 5.82986 3.16303C5.78033 3.03345 5.68147 2.92828 5.55453 2.87013C5.42758 2.81198 5.28268 2.8055 5.15096 2.85205C4.71179 2.99933 4.2996 3.21612 3.93041 3.494C3.00893 4.19682 2.44349 5.11865 2.23767 6.25151C2.19148 6.51184 2.18566 6.77662 2.16099 7.03784Z" fill="#6B7280"/>
</svg>
