<svg width="168" height="36" viewBox="0 0 168 36" fill="none" xmlns="http://www.w3.org/2000/svg">
<g clip-path="url(#clip0_1552_393)">
<path d="M57.3142 11.2337C57.3091 11.132 57.3411 11.032 57.4044 10.9523C57.4407 10.9161 57.4842 10.8881 57.5321 10.8701C57.58 10.852 57.6312 10.8444 57.6823 10.8477H63.0519C63.4187 10.8464 63.7836 10.8999 64.1345 11.0064C64.7978 11.2127 65.3911 11.5986 65.8486 12.1212C66.0773 12.3777 66.2736 12.6612 66.4332 12.9654C66.5909 13.2675 66.7121 13.5872 66.7941 13.9179C66.8791 14.2491 66.9215 14.5897 66.9204 14.9317C66.9201 15.4358 66.8284 15.9358 66.6497 16.4072C66.4716 16.881 66.2073 17.3177 65.8703 17.6952C65.5299 18.0736 65.1193 18.3823 64.6614 18.6044C64.1754 18.8438 63.6406 18.9673 63.0988 18.9652H60.5728V22.9626C60.5728 23.2043 60.4429 23.3234 60.1867 23.3234H57.6895C57.5924 23.3277 57.4971 23.2955 57.4225 23.2332C57.3861 23.1981 57.358 23.1551 57.3405 23.1077C57.3231 23.0602 57.3165 23.0093 57.3215 22.959L57.3142 11.2337ZM63.6401 14.9136C63.64 14.7413 63.6095 14.5703 63.5499 14.4085C63.4934 14.2446 63.4065 14.0929 63.2937 13.9612C63.1813 13.8263 63.0426 13.7158 62.8859 13.6365C62.7185 13.5508 62.5327 13.5075 62.3446 13.5102H60.5656V16.3171H62.3446C62.5335 16.3209 62.7205 16.2788 62.8896 16.1944C63.0462 16.1199 63.1852 16.0129 63.2973 15.8805C63.4098 15.7492 63.4956 15.5973 63.5499 15.4332C63.6107 15.2667 63.6413 15.0908 63.6401 14.9136Z" fill="#2D3370"/>
<path d="M79.0887 22.6992C79.0904 22.793 79.0732 22.8863 79.0382 22.9733C79.0063 23.0579 78.9481 23.13 78.8722 23.179C78.8126 23.2394 78.7357 23.2798 78.652 23.2944C78.5811 23.3115 78.5085 23.3212 78.4355 23.3233H76.7792C76.682 23.3258 76.5853 23.3099 76.4941 23.2764C76.4257 23.2477 76.3651 23.2032 76.3173 23.1465C76.2687 23.0847 76.2309 23.0152 76.2054 22.9409C76.1729 22.8579 76.1404 22.7713 76.108 22.6739L75.9961 22.3131C75.8343 22.4725 75.6619 22.6207 75.4801 22.7569C75.2799 22.9066 75.066 23.037 74.8413 23.1465C74.6029 23.2654 74.3525 23.3585 74.0944 23.4243C73.8244 23.4939 73.5467 23.5291 73.268 23.529C72.7733 23.5304 72.2806 23.4661 71.8029 23.3377C70.8876 23.0886 70.0538 22.6034 69.3851 21.9307C69.0565 21.5898 68.7716 21.2092 68.5371 20.7979C68.2955 20.3827 68.1099 19.9375 67.985 19.4738C67.8566 18.99 67.7923 18.4915 67.7937 17.991C67.7866 17.2476 67.9328 16.5107 68.2231 15.8263C68.4956 15.1736 68.8913 14.5795 69.3887 14.0766C69.8998 13.5716 70.5056 13.1725 71.1713 12.9019C71.8369 12.6314 72.5494 12.4948 73.268 12.5C73.8963 12.4935 74.5164 12.6435 75.0723 12.9365C75.317 13.0681 75.5438 13.2306 75.7471 13.4199C75.9458 13.603 76.1237 13.8075 76.2776 14.0297L76.5193 13.2648L76.6601 12.9257C76.6873 12.8547 76.7264 12.7888 76.7756 12.7309C76.8191 12.69 76.8726 12.6614 76.9307 12.6479C77.0175 12.6314 77.1058 12.6242 77.1942 12.6262H78.4464C78.5191 12.6287 78.5915 12.6372 78.6629 12.6515C78.7462 12.669 78.8227 12.7104 78.883 12.7705C78.9552 12.8251 79.0123 12.8971 79.049 12.9798C79.085 13.0641 79.1023 13.1552 79.0995 13.2468L79.0887 22.6992ZM70.8141 18.009C70.8111 18.3628 70.8697 18.7144 70.9873 19.0481C71.0936 19.357 71.2604 19.6415 71.4781 19.8851C71.6936 20.1209 71.9552 20.31 72.2467 20.4407C72.5593 20.5824 72.8996 20.6526 73.2427 20.6463C73.602 20.6511 73.9584 20.5811 74.2892 20.4407C74.6009 20.3101 74.885 20.1216 75.1264 19.8851C75.3664 19.6458 75.5565 19.3613 75.6858 19.0481C75.9553 18.3866 75.9553 17.6459 75.6858 16.9844C75.4242 16.3411 74.9237 15.8239 74.2892 15.5413C73.9589 15.3986 73.6025 15.3261 73.2427 15.3285C72.899 15.3245 72.5588 15.3973 72.2467 15.5413C71.953 15.6812 71.6914 15.8801 71.4781 16.1258C71.2609 16.3765 71.0943 16.6668 70.9873 16.9808C70.8725 17.3065 70.8139 17.6493 70.8141 17.9946V18.009Z" fill="#2D3370"/>
<path d="M80.4455 13.4849C80.3937 13.397 80.3612 13.2992 80.35 13.1978C80.3388 13.0964 80.3492 12.9939 80.3806 12.8968C80.4527 12.7345 80.6187 12.6551 80.8821 12.6551H83.0473C83.1837 12.6534 83.3172 12.6937 83.4298 12.7705C83.5416 12.8555 83.6227 12.9745 83.6608 13.1097L83.9747 14.1018C84.0902 14.4626 84.2093 14.845 84.3356 15.2238L84.6965 16.3567L85.0357 17.3957C85.1403 17.7132 85.2305 17.9874 85.3135 18.2219C85.3965 18.4564 85.4543 18.626 85.494 18.727L87.273 13.1097C87.3203 12.9683 87.4066 12.8433 87.522 12.7489C87.6408 12.6827 87.7759 12.6514 87.9117 12.6587H89.9037C90.0266 12.6536 90.1493 12.6732 90.2646 12.7164C90.3374 12.7473 90.3964 12.8038 90.4306 12.8752C90.4588 12.9488 90.465 13.029 90.4486 13.1061C90.4283 13.1995 90.4005 13.2912 90.3656 13.3802L89.4418 15.6387C89.4779 15.7361 89.5537 15.8949 89.6655 16.1222C89.7774 16.3495 89.9073 16.6056 90.048 16.8942C90.1888 17.1828 90.3367 17.4859 90.4847 17.8034C90.6326 18.1209 90.759 18.4131 90.8456 18.6873L92.9025 13.1133C92.9478 12.9772 93.0244 12.8536 93.1262 12.7525C93.2258 12.6848 93.3454 12.653 93.4654 12.6623H95.3239C95.5215 12.6415 95.7198 12.6955 95.8796 12.8138C95.977 12.9148 95.9842 13.1025 95.8796 13.3839L91.9678 22.9625C91.9152 23.067 91.8354 23.1555 91.7369 23.2187C91.6022 23.2994 91.4461 23.3372 91.2894 23.3269H90.4053C90.2392 23.3399 90.0731 23.3021 89.929 23.2187C89.8253 23.151 89.7408 23.0578 89.6836 22.9481L88.121 19.1347L86.5802 22.9625C86.5227 23.0604 86.4481 23.1471 86.36 23.2187C86.2558 23.2951 86.1283 23.3333 85.9992 23.3269H84.996C84.8323 23.3405 84.6682 23.3067 84.5232 23.2295C84.429 23.1636 84.3572 23.0704 84.3176 22.9625L80.4455 13.4849Z" fill="#2D3370"/>
<path d="M97.5071 12.8031C97.5713 12.7451 97.6497 12.7052 97.7344 12.6876C97.8115 12.6707 97.8901 12.6622 97.969 12.6624H99.2356C99.3253 12.6599 99.4143 12.6784 99.4954 12.7165C99.5665 12.7523 99.6292 12.8027 99.6795 12.8644C99.7319 12.9267 99.7734 12.9975 99.8022 13.0737C99.8346 13.1494 99.8635 13.2324 99.8924 13.3154L100.069 14.0369C100.165 13.8438 100.287 13.6642 100.43 13.503C100.601 13.3048 100.802 13.1344 101.025 12.9979C101.296 12.8399 101.586 12.7186 101.888 12.6371C102.269 12.534 102.663 12.4854 103.057 12.4928C103.381 12.4882 103.705 12.5233 104.021 12.5974C104.298 12.662 104.564 12.7665 104.811 12.9077C105.05 13.0431 105.269 13.2119 105.46 13.4092C105.667 13.6182 105.853 13.8466 106.016 14.091C106.147 13.8882 106.307 13.7048 106.489 13.5463C106.72 13.3453 106.973 13.171 107.243 13.0267C107.553 12.8633 107.88 12.7339 108.217 12.6407C108.589 12.5392 108.973 12.4894 109.358 12.4928C109.937 12.477 110.511 12.6007 111.032 12.8536C111.5 13.0919 111.906 13.4351 112.219 13.8565C112.551 14.3038 112.796 14.8092 112.941 15.3466C113.099 15.9348 113.178 16.5414 113.176 17.1505V22.674C113.188 22.8461 113.139 23.0171 113.039 23.1574C112.981 23.2159 112.912 23.261 112.835 23.2897C112.758 23.3184 112.676 23.3299 112.595 23.3234H110.657C110.482 23.3407 110.306 23.2974 110.159 23.2007C110.106 23.1341 110.067 23.0577 110.044 22.976C110.022 22.8942 110.015 22.8087 110.025 22.7245V17.1901C110.026 16.9618 109.988 16.7349 109.914 16.5191C109.842 16.3205 109.735 16.1369 109.596 15.9779C109.462 15.8223 109.294 15.699 109.105 15.6171C108.903 15.5285 108.684 15.4842 108.463 15.4873C108.255 15.4848 108.049 15.5279 107.86 15.6135C107.67 15.6991 107.498 15.8218 107.355 15.9743C107.2 16.1276 107.077 16.3104 106.994 16.5119C106.906 16.732 106.862 16.9674 106.864 17.2046V22.674C106.876 22.8461 106.828 23.0171 106.727 23.1574C106.67 23.2159 106.6 23.261 106.524 23.2897C106.447 23.3184 106.365 23.3299 106.283 23.3234H104.342C104.168 23.3401 103.993 23.2968 103.847 23.2007C103.795 23.1341 103.756 23.0577 103.733 22.976C103.71 22.8942 103.704 22.8087 103.714 22.7245V17.1901C103.715 16.9623 103.68 16.7357 103.609 16.5191C103.542 16.3218 103.439 16.1385 103.306 15.9779C103.175 15.8234 103.011 15.7002 102.826 15.6171C102.628 15.5282 102.412 15.4838 102.195 15.4873C101.99 15.4877 101.788 15.5282 101.599 15.6063C101.406 15.6944 101.23 15.8166 101.08 15.9671C100.921 16.1212 100.79 16.3019 100.693 16.501C100.588 16.7165 100.527 16.9507 100.513 17.1901V22.7317C100.513 22.8292 100.495 22.9259 100.459 23.0167C100.429 23.1062 100.371 23.1835 100.293 23.2368C100.23 23.2774 100.16 23.3078 100.087 23.327C100.016 23.3469 99.9415 23.3566 99.8671 23.3558H97.969C97.879 23.3703 97.7868 23.3637 97.6998 23.3367C97.6127 23.3097 97.533 23.263 97.467 23.2001C97.401 23.1372 97.3504 23.06 97.3192 22.9743C97.2879 22.8887 97.2769 22.797 97.287 22.7064V13.3262C97.2842 13.2241 97.3091 13.1231 97.3591 13.034C97.4022 12.9467 97.47 12.8739 97.554 12.8247L97.5071 12.8031Z" fill="#2D3370"/>
<path d="M124.128 22.0462C123.641 22.4961 123.078 22.8553 122.464 23.1069C121.844 23.3636 121.179 23.4936 120.508 23.4893C119.766 23.4917 119.031 23.3496 118.343 23.0708C117.672 22.8026 117.059 22.4068 116.539 21.9055C116.02 21.4078 115.603 20.8134 115.312 20.1557C115.005 19.4655 114.85 18.7175 114.857 17.9622C114.856 17.4754 114.917 16.9905 115.038 16.5191C115.154 16.0667 115.326 15.6304 115.55 15.2203C115.772 14.8176 116.044 14.4443 116.359 14.1091C116.671 13.7729 117.028 13.4804 117.419 13.2396C118.241 12.7465 119.182 12.4906 120.14 12.5C120.598 12.4991 121.053 12.5611 121.494 12.684C121.924 12.8074 122.337 12.9831 122.724 13.2071C123.107 13.4311 123.461 13.7013 123.778 14.0117C124.092 14.3208 124.368 14.666 124.601 15.0399C124.83 15.4128 125.01 15.8143 125.135 16.2341C125.261 16.6579 125.324 17.0979 125.322 17.5401C125.322 17.8311 125.322 18.0716 125.322 18.2616C125.32 18.4175 125.275 18.5698 125.192 18.7018C125.093 18.8224 124.953 18.9031 124.799 18.9291C124.535 18.9799 124.267 19.0016 123.998 18.994H117.946C117.988 19.3157 118.104 19.6233 118.286 19.8924C118.446 20.11 118.647 20.2949 118.877 20.4371C119.099 20.5796 119.343 20.6833 119.599 20.7438C119.835 20.8039 120.077 20.8353 120.321 20.8376C120.529 20.8368 120.737 20.8151 120.941 20.7727C121.151 20.7327 121.357 20.6772 121.559 20.6067C121.748 20.5408 121.932 20.4587 122.107 20.3614C122.252 20.2837 122.385 20.1866 122.504 20.0727C122.578 20.0135 122.655 19.9582 122.735 19.9068C122.798 19.8713 122.869 19.8527 122.941 19.8527C123.021 19.8546 123.099 19.8811 123.164 19.9284C123.257 19.9925 123.343 20.0662 123.421 20.1485L124.312 21.1551C124.364 21.2128 124.405 21.2803 124.431 21.3535C124.446 21.4125 124.453 21.4731 124.453 21.5339C124.456 21.6375 124.424 21.7393 124.362 21.8225C124.297 21.9098 124.218 21.9854 124.128 22.0462ZM120.086 15.0471C119.869 15.047 119.654 15.0912 119.455 15.177C119.246 15.2697 119.052 15.3912 118.877 15.5378C118.698 15.6833 118.535 15.8491 118.394 16.032C118.254 16.2064 118.133 16.395 118.033 16.5948H122.324C122.211 16.3847 122.083 16.1833 121.941 15.9923C121.807 15.8095 121.65 15.6457 121.472 15.5053C121.29 15.3624 121.085 15.2514 120.866 15.177C120.615 15.0907 120.351 15.0468 120.086 15.0471Z" fill="#2D3370"/>
<path d="M127.076 10.9919C127.071 10.9178 127.084 10.8435 127.114 10.7755C127.144 10.7076 127.191 10.6481 127.249 10.6023C127.4 10.4955 127.565 10.4116 127.74 10.3533L129.649 9.68952C129.675 9.68612 129.702 9.68612 129.728 9.68952H129.801C129.88 9.6784 129.96 9.68937 130.034 9.7212C130.107 9.75304 130.17 9.80451 130.216 9.86991C130.293 10.0151 130.329 10.1784 130.32 10.3425V12.6515H131.471C131.551 12.6484 131.631 12.6612 131.706 12.6891C131.781 12.7169 131.85 12.7593 131.908 12.8139C131.968 12.8772 132.013 12.9523 132.042 13.0344C132.07 13.1164 132.081 13.2035 132.074 13.2901V14.9136C132.083 15.0063 132.072 15.0998 132.044 15.1884C132.015 15.2771 131.969 15.3591 131.908 15.4295C131.85 15.484 131.781 15.5264 131.706 15.5543C131.631 15.5821 131.551 15.5949 131.471 15.5919H130.32V22.6811C130.327 22.7703 130.314 22.8597 130.282 22.9432C130.25 23.0267 130.2 23.1023 130.136 23.1646C129.992 23.2811 129.809 23.3402 129.624 23.3305H127.718C127.63 23.3432 127.54 23.3352 127.456 23.307C127.371 23.2789 127.294 23.2314 127.231 23.1684C127.168 23.1053 127.121 23.0285 127.092 22.9439C127.064 22.8593 127.056 22.7694 127.069 22.6811V15.5919H126.203C125.773 15.5919 125.557 15.3646 125.557 14.9136V13.2901C125.545 13.2027 125.553 13.1137 125.581 13.0302C125.609 12.9466 125.657 12.8708 125.72 12.8088C125.782 12.7467 125.859 12.7002 125.943 12.6729C126.026 12.6456 126.116 12.6383 126.203 12.6515H127.069L127.076 10.9919Z" fill="#2D3370"/>
<path d="M133.647 13.2756C133.645 13.1798 133.665 13.0847 133.705 12.9978C133.743 12.9238 133.796 12.8586 133.86 12.8066C133.926 12.7548 134.001 12.7157 134.08 12.6912C134.158 12.6674 134.238 12.6552 134.319 12.6551H135.589C135.651 12.6514 135.712 12.6608 135.77 12.6825C135.828 12.7043 135.881 12.738 135.924 12.7814C136.014 12.8737 136.086 12.9812 136.137 13.0989C136.202 13.2371 136.254 13.3808 136.293 13.5282C136.338 13.6821 136.392 13.8336 136.455 13.9828C136.621 13.7952 136.787 13.622 136.953 13.4344C137.115 13.2587 137.294 13.0992 137.487 12.9581C137.68 12.816 137.891 12.7007 138.115 12.6154C138.369 12.5278 138.637 12.4886 138.905 12.5C139.177 12.4967 139.449 12.5196 139.717 12.5685C139.948 12.6111 140.174 12.6776 140.392 12.7669C140.614 12.8575 140.826 12.9686 141.027 13.0989C141.236 13.2323 141.464 13.3875 141.713 13.5679C141.812 13.6095 141.898 13.6776 141.962 13.7647C142.026 13.8518 142.064 13.9547 142.074 14.0621C142.064 14.2149 142.016 14.3628 141.933 14.4915L141.168 15.7939C141.109 15.8917 141.027 15.9731 140.929 16.0305C140.83 16.0879 140.719 16.1194 140.605 16.1222C140.48 16.1146 140.357 16.0827 140.244 16.0284C140.036 15.8131 139.792 15.6361 139.522 15.5052C139.253 15.3856 138.961 15.3265 138.667 15.3321C138.472 15.328 138.278 15.3586 138.093 15.4223C137.929 15.4843 137.777 15.5733 137.642 15.6856C137.508 15.8059 137.387 15.9401 137.281 16.0861C137.166 16.2448 137.047 16.418 136.92 16.6092V22.6739C136.932 22.8489 136.877 23.0218 136.765 23.1574C136.695 23.2181 136.613 23.2641 136.524 23.2926C136.435 23.3211 136.342 23.3315 136.249 23.3233H134.358C134.27 23.3365 134.179 23.3288 134.094 23.3009C134.009 23.2731 133.931 23.2257 133.868 23.1627C133.804 23.0997 133.756 23.0228 133.727 22.9379C133.698 22.8531 133.689 22.7627 133.702 22.6739L133.647 13.2756Z" fill="#2D3370"/>
<path d="M143.308 9.05802C143.299 8.96913 143.308 8.87935 143.334 8.79388C143.36 8.70842 143.402 8.62897 143.459 8.56014C143.592 8.45172 143.761 8.39872 143.932 8.41222H145.881C146.051 8.40423 146.218 8.45663 146.353 8.56014C146.42 8.62375 146.47 8.70173 146.502 8.78806C146.533 8.87439 146.544 8.96676 146.534 9.05802V10.696C146.532 10.7713 146.518 10.8458 146.491 10.916C146.457 10.997 146.413 11.0734 146.361 11.1433C146.304 11.2154 146.234 11.2765 146.155 11.3237C146.071 11.3715 145.977 11.3964 145.881 11.3959H143.932C143.517 11.3959 143.308 11.1614 143.308 10.696V9.05802Z" fill="#2D3370"/>
<path d="M143.308 13.3081C143.303 13.1413 143.357 12.9781 143.459 12.8463C143.518 12.7799 143.591 12.7281 143.673 12.6949C143.755 12.6617 143.844 12.6481 143.932 12.6551H145.855C145.93 12.6562 146.004 12.6721 146.072 12.702C146.153 12.733 146.227 12.7782 146.292 12.8355C146.36 12.8947 146.418 12.9641 146.465 13.0411C146.512 13.1223 146.536 13.2146 146.534 13.3081V22.6883C146.54 22.7765 146.528 22.8651 146.498 22.9484C146.468 23.0316 146.422 23.1077 146.361 23.1718C146.219 23.2894 146.039 23.3487 145.855 23.3378H143.932C143.517 23.3378 143.308 23.1213 143.308 22.6883V13.3081Z" fill="#2D3370"/>
<path d="M147.905 23.0022C147.896 22.9628 147.895 22.922 147.903 22.8823C147.91 22.8426 147.926 22.8048 147.948 22.7713C147.992 22.6956 148.031 22.6342 148.064 22.5837L151.409 17.8684L148.241 13.3694C148.184 13.2966 148.136 13.2165 148.1 13.1313C148.061 13.0609 148.045 12.9804 148.053 12.9004C148.057 12.8654 148.069 12.8318 148.088 12.8019C148.107 12.7719 148.132 12.7465 148.161 12.7273C148.258 12.67 148.37 12.6447 148.482 12.6551H151.124C151.172 12.6554 151.218 12.6666 151.261 12.6879C151.304 12.7091 151.341 12.7399 151.369 12.7778C151.456 12.8772 151.537 12.982 151.611 13.0917L153.213 15.6856C153.322 15.5341 153.444 15.3429 153.574 15.112C153.704 14.8811 153.856 14.6394 154.007 14.3904C154.159 14.1415 154.296 13.8962 154.433 13.6689C154.57 13.4416 154.689 13.236 154.794 13.0736C154.865 12.9548 154.955 12.8487 155.061 12.7597C155.143 12.6942 155.245 12.6597 155.35 12.6623H158.031C158.096 12.6622 158.159 12.6757 158.219 12.702C158.275 12.7288 158.323 12.7699 158.359 12.8211C158.393 12.8734 158.407 12.9361 158.399 12.9978C158.388 13.0809 158.35 13.1581 158.291 13.2179L155.007 17.8539L158.276 22.4214C158.343 22.5166 158.399 22.6181 158.446 22.7244C158.49 22.8156 158.512 22.9156 158.511 23.0167C158.508 23.0607 158.496 23.1035 158.474 23.1422C158.453 23.1809 158.424 23.2144 158.388 23.2403C158.273 23.3098 158.139 23.3414 158.006 23.3305H155.285C155.157 23.3265 155.033 23.2821 154.932 23.2037C154.831 23.1252 154.758 23.0168 154.722 22.894L153.224 20.2026L151.712 22.9265C151.657 23.0405 151.577 23.1404 151.478 23.2187C151.4 23.2856 151.302 23.3249 151.2 23.3305H148.277C148.206 23.3318 148.136 23.3144 148.075 23.28C148.008 23.2349 147.959 23.1689 147.934 23.0924L147.905 23.0022Z" fill="#2D3370"/>
<path d="M48.5633 8.87062C47.601 7.12926 46.4715 5.97236 45.1748 5.39993C41.0249 3.59604 36.3085 8.69023 32.2271 9.23139C29.7637 9.54133 27.2628 9.15253 25.0099 8.10937L24.9197 7.95785C24.2284 6.79335 23.3782 5.73085 22.3936 4.80104C22.3405 4.74547 22.2767 4.70128 22.206 4.67116C20.463 3.93156 18.868 3.80529 17.4354 4.28873C14.036 5.42879 10.7414 12.1068 9.85726 14.9281L9.5794 16.0321L9.56136 16.1367C9.52105 16.3645 9.49573 16.5947 9.48557 16.8258C9.40979 18.1859 9.82839 19.2863 11.0373 19.8455L11.6255 20.8016C12.8284 23.9644 14.4017 26.473 16.3456 28.3274C18.2596 30.1696 20.6636 31.4221 23.2705 31.9352L24.4 31.9749C24.3784 31.7945 24.3603 31.6141 24.3423 31.4265C24.299 30.9033 24.2773 30.373 24.2665 29.8463V28.7026C24.2628 28.669 24.2628 28.6351 24.2665 28.6016C24.2665 28.5619 24.2665 28.5222 24.2665 28.4825C24.2845 27.9017 24.3242 27.3172 24.3856 26.7364C26.4962 28.0865 28.8819 28.9481 31.3683 29.2582C35.2487 29.6695 39.0979 28.4561 42.9158 25.6179C43.6716 25.3091 44.3818 24.8989 45.0269 24.3985C46.7109 23.0901 47.9138 21.1659 48.6355 18.6261C49.5918 15.361 50.2233 11.8867 48.5633 8.87062ZM47.5818 18.3266C46.925 20.6284 45.8424 22.3601 44.334 23.5218C42.8256 24.6835 40.901 25.2932 38.5602 25.351C36.1809 25.3452 33.8155 24.9865 31.5415 24.2867C31.4709 24.2635 31.3963 24.2548 31.3222 24.2611C31.2482 24.2674 31.1761 24.2886 31.1105 24.3234C31.0448 24.3582 30.9868 24.4059 30.9401 24.4636C30.8933 24.5214 30.8586 24.588 30.8382 24.6594C30.8178 24.7309 30.812 24.8057 30.8212 24.8794C30.8304 24.9532 30.8544 25.0243 30.8918 25.0885C30.9292 25.1528 30.9791 25.2088 31.0387 25.2533C31.0982 25.2978 31.1661 25.3298 31.2383 25.3474C33.6178 26.0839 36.0946 26.4585 38.5855 26.4586C38.9464 26.4586 39.3072 26.4297 39.6464 26.3972C36.9279 27.8596 34.2143 28.4464 31.5054 28.1578C29.1237 27.9029 26.73 26.9769 24.3242 25.3798C24.3031 25.3629 24.2801 25.3483 24.2557 25.3365C22.9351 24.4416 21.6929 23.4362 20.5424 22.3313C20.4362 22.2298 20.294 22.1748 20.1471 22.1781C20.0003 22.1815 19.8608 22.2431 19.7593 22.3493C19.6579 22.4555 19.6028 22.5977 19.6062 22.7445C19.6095 22.8913 19.6711 23.0308 19.7774 23.1322C20.9029 24.2079 22.1093 25.1957 23.386 26.087C23.2898 26.859 23.2272 27.6323 23.1983 28.4068C21.425 27.7512 19.8174 26.7142 18.4891 25.369C16.833 23.6511 15.4897 21.6573 14.5196 19.4775C17.792 17.783 20.9288 15.8386 23.902 13.6617C24.0207 13.5756 24.1003 13.4459 24.1233 13.3011C24.1463 13.1563 24.1108 13.0083 24.0247 12.8897C23.9386 12.771 23.8088 12.6915 23.664 12.6685C23.5192 12.6454 23.3711 12.6809 23.2525 12.767C19.944 15.195 16.422 17.3179 12.7297 19.1095C11.0842 18.9796 10.5465 18.0885 10.6151 16.8871C10.7378 14.5493 14.5196 6.44619 17.789 5.3422C18.9414 4.95256 20.2417 5.05719 21.6899 5.65608C22.5816 6.50845 23.3515 7.47967 23.9778 8.54231C24.0283 8.62889 24.0824 8.71908 24.133 8.81649L24.1582 8.84175C24.8408 10.0504 25.4155 11.3169 25.8759 12.6263C25.9354 12.7486 26.0375 12.8448 26.1631 12.8968C26.2887 12.9488 26.429 12.9529 26.5575 12.9085C26.6859 12.8641 26.7937 12.7741 26.8602 12.6556C26.9268 12.5371 26.9477 12.3983 26.9188 12.2655C26.6054 11.3701 26.2441 10.4921 25.8362 9.63546C27.9252 10.3967 30.1667 10.6442 32.3715 10.357C35.0009 10.0131 37.6136 8.89587 40.2094 7.00539L40.5702 6.81418C40.9479 11.3263 43.5437 13.1013 48.3576 12.1393C48.3809 14.2273 48.1199 16.3089 47.5818 18.3266Z" fill="#2D3370"/>
<path d="M35.4352 15.0471C36.1646 15.0471 36.7559 14.456 36.7559 13.7267C36.7559 12.9974 36.1646 12.4062 35.4352 12.4062C34.7057 12.4062 34.1144 12.9974 34.1144 13.7267C34.1144 14.456 34.7057 15.0471 35.4352 15.0471Z" fill="#2D3370"/>
</g>
<defs>
<clipPath id="clip0_1552_393">
<rect width="149" height="28" fill="white" transform="translate(9.5 4)"/>
</clipPath>
</defs>
</svg>
