<svg width="352" height="40" viewBox="0 0 352 40" fill="none" xmlns="http://www.w3.org/2000/svg">
<g clip-path="url(#clip0_406_9802)">
<circle cx="90.6121" cy="19.9994" r="19.5519" fill="#2D3370"/>
<path d="M89.3921 12.6675C90.7419 12.6675 91.8361 11.5733 91.8361 10.2235C91.8361 8.87375 90.7419 7.77954 89.3921 7.77954C88.0424 7.77954 86.9482 8.87375 86.9482 10.2235C86.9482 11.5733 88.0424 12.6675 89.3921 12.6675Z" fill="white"/>
<path d="M97.9461 17.5555C99.2959 17.5555 100.39 16.4613 100.39 15.1115C100.39 13.7617 99.2959 12.6675 97.9461 12.6675C96.5963 12.6675 95.5021 13.7617 95.5021 15.1115C95.5021 16.4613 96.5963 17.5555 97.9461 17.5555Z" fill="white"/>
<path d="M100.39 27.3314C101.74 27.3314 102.834 26.2372 102.834 24.8874C102.834 23.5377 101.74 22.4434 100.39 22.4434C99.0403 22.4434 97.9461 23.5377 97.9461 24.8874C97.9461 26.2372 99.0403 27.3314 100.39 27.3314Z" fill="white"/>
<path d="M86.9485 17.5555C87.7508 17.5555 88.5453 17.7135 89.2866 18.0206C90.0279 18.3276 90.7015 18.7777 91.2688 19.345C91.8362 19.9124 92.2863 20.586 92.5933 21.3273C92.9004 22.0686 93.0584 22.8631 93.0584 23.6654V27.9424C93.0581 28.9646 92.6917 29.9528 92.0256 30.7281C91.3595 31.5034 90.4378 32.0146 89.4274 32.1689C88.417 32.3233 87.3846 32.1107 86.5175 31.5696C85.6503 31.0286 85.0055 30.1948 84.7 29.2194C84.1786 27.5371 83.0788 26.4353 81.4006 25.9139C80.4257 25.6085 79.5923 24.9643 79.0512 24.0977C78.5101 23.2312 78.297 22.1996 78.4506 21.1895C78.6042 20.1795 79.1142 19.2578 79.8884 18.5913C80.6626 17.9247 81.6499 17.5573 82.6715 17.5555H86.9485Z" fill="white"/>
</g>
<path d="M121.993 9.32389H131.495C133.743 9.32389 135.493 9.8909 136.745 11.0249C137.996 12.1589 138.622 13.7426 138.622 15.776C138.622 17.8094 137.996 19.3931 136.745 20.5271C135.493 21.6611 133.743 22.2281 131.495 22.2281H126.568V30H121.993V9.32389ZM130.908 18.7674C133.196 18.7674 134.34 17.7801 134.34 15.8053C134.34 14.7886 134.056 14.0359 133.489 13.5471C132.922 13.0583 132.062 12.8139 130.908 12.8139H126.568V18.7674H130.908ZM147.195 15.2481C149.345 15.2481 150.929 15.7565 151.946 16.7732C152.982 17.7899 153.5 19.3638 153.5 21.4949V30H149.306V27.8591C149.013 28.602 148.524 29.1886 147.84 29.6187C147.156 30.0293 146.354 30.2346 145.435 30.2346C144.457 30.2346 143.568 30.0391 142.766 29.6481C141.984 29.257 141.359 28.7096 140.889 28.0057C140.44 27.3018 140.215 26.5198 140.215 25.6595C140.215 24.6037 140.479 23.7727 141.007 23.1666C141.554 22.5605 142.424 22.1206 143.617 21.8469C144.809 21.5731 146.442 21.4363 148.515 21.4363H149.277V20.9084C149.277 20.0481 149.091 19.442 148.72 19.0901C148.348 18.7381 147.703 18.5622 146.784 18.5622C146.08 18.5622 145.298 18.6892 144.438 18.9434C143.578 19.1976 142.756 19.5495 141.974 19.9992L140.801 17.0371C141.622 16.5288 142.629 16.1084 143.822 15.776C145.034 15.4241 146.158 15.2481 147.195 15.2481ZM146.403 27.1845C147.263 27.1845 147.957 26.901 148.485 26.334C149.013 25.7475 149.277 24.9947 149.277 24.0758V23.5772H148.778C147.195 23.5772 146.08 23.7043 145.435 23.9585C144.809 24.2126 144.497 24.6721 144.497 25.3369C144.497 25.8648 144.673 26.3047 145.024 26.6566C145.396 27.0086 145.855 27.1845 146.403 27.1845ZM176.168 15.6H180.479L174.643 30H170.889L167.721 21.8762L164.642 30H160.917L155.052 15.6H159.568L162.97 24.721L166.372 15.6H169.364L172.795 24.809L176.168 15.6ZM199.462 9.32389H203.011V30H198.993V17.741L194.242 26.598H191.309L186.558 17.8583V30H182.54V9.32389H186.147L192.805 21.9642L199.462 9.32389ZM219.78 23.6359H210.395C210.532 24.7894 210.904 25.6302 211.51 26.1581C212.136 26.6664 213.015 26.9206 214.149 26.9206C214.892 26.9206 215.626 26.8033 216.349 26.5686C217.092 26.3145 217.767 25.9625 218.373 25.5128L219.546 28.475C218.842 29.0224 217.982 29.4525 216.965 29.7654C215.968 30.0782 214.961 30.2346 213.944 30.2346C211.52 30.2346 209.604 29.5699 208.196 28.2403C206.808 26.8913 206.114 25.0632 206.114 22.756C206.114 21.2896 206.417 19.9894 207.023 18.8554C207.629 17.7214 208.47 16.8416 209.545 16.2159C210.62 15.5707 211.842 15.2481 213.211 15.2481C215.225 15.2481 216.818 15.9031 217.991 17.2131C219.184 18.523 219.78 20.3023 219.78 22.5507V23.6359ZM213.328 18.2982C212.488 18.2982 211.813 18.5719 211.305 19.1194C210.816 19.6473 210.513 20.4196 210.395 21.4363H216.056C215.997 20.4 215.733 19.618 215.264 19.0901C214.814 18.5622 214.169 18.2982 213.328 18.2982ZM230.146 26.9792C230.596 26.9792 231.065 26.9499 231.554 26.8913L231.319 30.1173C230.752 30.1955 230.185 30.2346 229.618 30.2346C227.428 30.2346 225.825 29.7556 224.808 28.7976C223.811 27.8395 223.313 26.3829 223.313 24.4277V18.9141H220.585V15.6H223.313V11.3768H227.741V15.6H231.348V18.9141H227.741V24.3984C227.741 26.119 228.543 26.9792 230.146 26.9792ZM243.804 18.8848L241.312 19.1487C240.08 19.266 239.21 19.618 238.701 20.2045C238.193 20.7715 237.939 21.534 237.939 22.4921V30H233.51V15.6H237.763V18.0343C238.486 16.3723 239.982 15.4632 242.25 15.3068L243.541 15.2188L243.804 18.8848ZM245.282 30V15.6H249.71V30H245.282ZM245.135 8.67868H249.886V12.8139H245.135V8.67868ZM259.963 30.2346C257.617 30.2346 255.769 29.5699 254.42 28.2403C253.071 26.9108 252.397 25.1023 252.397 22.8147C252.397 21.3092 252.719 19.9894 253.364 18.8554C254.01 17.7019 254.919 16.8123 256.092 16.1866C257.265 15.5609 258.624 15.2481 260.168 15.2481C261.224 15.2481 262.241 15.4143 263.219 15.7467C264.196 16.0595 264.988 16.4897 265.594 17.0371L264.421 20.0579C263.854 19.6082 263.228 19.266 262.544 19.0314C261.879 18.7772 261.224 18.6501 260.579 18.6501C259.425 18.6501 258.526 18.9923 257.881 19.6766C257.255 20.3609 256.942 21.3776 256.942 22.7267C256.942 24.0758 257.255 25.1023 257.881 25.8061C258.526 26.4904 259.425 26.8326 260.579 26.8326C261.224 26.8326 261.879 26.7153 262.544 26.4807C263.228 26.2265 263.854 25.8746 264.421 25.4249L265.594 28.475C264.949 29.0224 264.128 29.4525 263.131 29.7654C262.133 30.0782 261.078 30.2346 259.963 30.2346ZM273.135 30.2346C271.806 30.2346 270.584 30.088 269.469 29.7947C268.375 29.4819 267.426 29.042 266.625 28.475L267.798 25.4249C268.58 25.9528 269.44 26.3634 270.379 26.6566C271.317 26.9499 272.265 27.0965 273.223 27.0965C273.908 27.0965 274.436 26.989 274.807 26.7739C275.198 26.5393 275.394 26.2265 275.394 25.8355C275.394 25.4835 275.257 25.2098 274.983 25.0143C274.729 24.8188 274.24 24.6428 273.517 24.4864L271.171 23.9585C269.782 23.6456 268.756 23.1666 268.091 22.5214C267.446 21.8566 267.123 20.9573 267.123 19.8232C267.123 18.9239 267.377 18.132 267.886 17.4477C268.414 16.7634 269.147 16.2257 270.085 15.8347C271.043 15.4436 272.129 15.2481 273.341 15.2481C274.377 15.2481 275.384 15.4045 276.362 15.7174C277.339 16.0302 278.219 16.4701 279.001 17.0371L277.828 19.9699C276.303 18.9141 274.797 18.3862 273.311 18.3862C272.627 18.3862 272.089 18.5035 271.698 18.7381C271.307 18.9727 271.112 19.3051 271.112 19.7353C271.112 20.0481 271.229 20.2925 271.464 20.4685C271.698 20.6444 272.109 20.8106 272.696 20.967L275.13 21.5243C276.596 21.8566 277.662 22.365 278.326 23.0493C279.011 23.7141 279.353 24.6232 279.353 25.7768C279.353 27.165 278.796 28.2599 277.681 29.0615C276.586 29.8436 275.071 30.2346 273.135 30.2346Z" fill="#2D3370"/>
<defs>
<clipPath id="clip0_406_9802">
<rect width="39.1037" height="39.1037" fill="white" transform="translate(71.0602 0.448242)"/>
</clipPath>
</defs>
</svg>
