<svg width="16" height="16" viewBox="0 0 16 16" fill="none" xmlns="http://www.w3.org/2000/svg">
<path fill-rule="evenodd" clip-rule="evenodd" d="M4.79508 7.67072C4.79508 7.51814 4.8557 7.37181 4.96359 7.26392C5.07148 7.15603 5.2178 7.09542 5.37038 7.09542H13.7874L12.2832 5.80675C12.2258 5.75759 12.1786 5.69761 12.1444 5.63022C12.1101 5.56283 12.0895 5.48936 12.0837 5.414C12.0778 5.33864 12.0869 5.26287 12.1103 5.19101C12.1338 5.11915 12.1711 5.05261 12.2203 4.9952C12.2694 4.93778 12.3294 4.8906 12.3968 4.85637C12.4642 4.82213 12.5377 4.80151 12.613 4.79567C12.6884 4.78983 12.7642 4.79889 12.836 4.82233C12.9079 4.84577 12.9744 4.88314 13.0318 4.9323L15.7166 7.23349C15.7797 7.2875 15.8304 7.35455 15.8652 7.43003C15.9 7.50551 15.918 7.58762 15.918 7.67072C15.918 7.75382 15.9 7.83593 15.8652 7.91141C15.8304 7.98689 15.7797 8.05394 15.7166 8.10795L13.0318 10.4091C12.9159 10.5084 12.7652 10.5576 12.613 10.5458C12.4608 10.534 12.3196 10.4622 12.2203 10.3462C12.121 10.2303 12.0719 10.0796 12.0837 9.92744C12.0955 9.77525 12.1672 9.63397 12.2832 9.53469L13.7866 8.24602H5.37038C5.2178 8.24602 5.07148 8.18541 4.96359 8.07752C4.8557 7.96963 4.79508 7.8233 4.79508 7.67072Z" fill="#6B7280"/>
<path d="M9.97266 4.6024C9.97266 5.14088 9.97266 5.41012 9.84302 5.60418C9.78719 5.68762 9.71552 5.75929 9.63208 5.81513C9.43801 5.94476 9.16877 5.94476 8.63029 5.94476H5.37026C4.91252 5.94476 4.47354 6.1266 4.14987 6.45026C3.8262 6.77393 3.64436 7.21292 3.64436 7.67066C3.64436 8.1284 3.8262 8.56738 4.14987 8.89105C4.47354 9.21472 4.91252 9.39656 5.37026 9.39656H8.63029C9.16877 9.39656 9.43801 9.39656 9.63208 9.52542C9.71559 9.58148 9.78727 9.65342 9.84302 9.73713C9.97266 9.9312 9.97266 10.2004 9.97266 10.7389C9.97266 12.9082 9.97266 13.9936 9.29841 14.6671C8.62492 15.3413 7.54029 15.3413 5.37103 15.3413H4.60396C2.43316 15.3413 1.3493 15.3413 0.67505 14.6671C0.000799179 13.9936 0.000799179 12.9082 0.000799179 10.7389V4.6024C0.000799179 2.43313 0.000799179 1.34773 0.67505 0.674251C1.3493 0.00076701 2.43393 0 4.60319 0H5.37026C7.54029 0 8.62492 -4.57207e-08 9.29841 0.674251C9.97266 1.34773 9.97266 2.43313 9.97266 4.6024Z" fill="#A8ACBA"/>
</svg>
