<svg width="18" height="16" viewBox="0 0 18 16" fill="none" xmlns="http://www.w3.org/2000/svg">
<path d="M9 4.25V1H5.8M1 9.125H2.6M15.4 9.125H17M11.4 8.3125V9.9375M6.6 8.3125V9.9375M4.2 4.25H13.8C14.6837 4.25 15.4 4.97754 15.4 5.875V12.375C15.4 13.2725 14.6837 14 13.8 14H4.2C3.31634 14 2.6 13.2725 2.6 12.375V5.875C2.6 4.97754 3.31634 4.25 4.2 4.25Z" stroke="#A8ACBA" stroke-width="1.6875" stroke-linecap="round" stroke-linejoin="round"/>
<path d="M9 4.25V1L8.89687 4.25" fill="#6B7280"/>
<path d="M13.8 4.25H4.2C3.31634 4.25 2.6 4.97754 2.6 5.875V12.375C2.6 13.2725 3.31634 14 4.2 14H13.8C14.6837 14 15.4 13.2725 15.4 12.375V5.875C15.4 4.97754 14.6837 4.25 13.8 4.25Z" fill="#6B7280"/>
<path d="M1 9.125H2.6H1Z" fill="#6B7280"/>
<path d="M15.4 9.125H17H15.4Z" fill="#6B7280"/>
<path d="M11.4 8.3125V9.9375V8.3125Z" fill="#6B7280"/>
<path d="M6.6 8.3125V9.9375V8.3125Z" fill="#6B7280"/>
<rect x="5.25" y="7" width="2" height="3" rx="1" fill="white"/>
<rect x="11" y="7" width="2" height="3" rx="1" fill="white"/>
</svg>
