<svg width="40" height="40" viewBox="0 0 40 40" fill="none" xmlns="http://www.w3.org/2000/svg">
<g clip-path="url(#clip0_467_3951)">
<rect width="40" height="40" rx="8" fill="#424CA8"/>
<path d="M21.6663 11.6667V15.0001C21.6663 15.4421 21.8419 15.866 22.1545 16.1786C22.4671 16.4912 22.891 16.6667 23.333 16.6667H26.6663M22.4997 11.6667H14.9997C14.5576 11.6667 14.1337 11.8423 13.8212 12.1549C13.5086 12.4675 13.333 12.8914 13.333 13.3334V26.6667C13.333 27.1088 13.5086 27.5327 13.8212 27.8453C14.1337 28.1578 14.5576 28.3334 14.9997 28.3334H24.9997C25.4417 28.3334 25.8656 28.1578 26.1782 27.8453C26.4907 27.5327 26.6663 27.1088 26.6663 26.6667V15.8334L22.4997 11.6667Z" stroke="white" stroke-width="2" stroke-linecap="round" stroke-linejoin="round"/>
</g>
<defs>
<clipPath id="clip0_467_3951">
<rect width="40" height="40" rx="8" fill="white"/>
</clipPath>
</defs>
</svg>
