<svg width="16" height="17" viewBox="0 0 16 17" fill="none" xmlns="http://www.w3.org/2000/svg">
<path d="M0.000518799 7.81321C0.0462847 7.99404 0.0752354 8.18074 0.141342 8.35373C0.426501 9.10247 0.954576 9.59563 1.72674 9.82146L1.87498 9.86529V10.034C1.87498 10.7581 1.87224 11.4821 1.87498 12.2054C1.87498 12.5835 2.20669 12.8215 2.52588 12.6779C2.596 12.6437 2.65966 12.5976 2.71404 12.5417C3.03975 12.2199 3.36336 11.8957 3.6849 11.569C3.72396 11.5305 3.74832 11.4796 3.75375 11.425C3.75375 10.7115 3.74984 9.99838 3.74867 9.28525C3.74867 8.42066 3.74202 7.55646 3.74867 6.69187C3.7604 5.41866 4.30999 4.44213 5.40173 3.78341C5.92198 3.4703 6.49699 3.34388 7.10174 3.34466C8.73628 3.34675 10.3707 3.34675 12.005 3.34466H12.2006C12.2788 2.50629 12.1157 1.75598 11.4906 1.15597C11.1414 0.815663 10.6925 0.5962 10.2095 0.529741C10.1794 0.523101 10.15 0.513803 10.1215 0.501953H2.09404C2.0654 0.513401 2.03599 0.522817 2.00602 0.530132C1.06371 0.69491 0.436667 1.23465 0.116694 2.13173C0.0631046 2.28124 0.0384607 2.44092 -0.000656128 2.59592L0.000518799 7.81321Z" fill="#6B7280"/>
<path d="M14.0899 13.6127C14.7572 13.4538 15.2735 13.1039 15.6365 12.5371C15.8632 12.1967 15.9864 11.7978 15.9909 11.3888C15.9972 9.78405 16.0078 8.17932 15.9909 6.57734C15.9765 5.29826 14.9144 4.28925 13.6048 4.28299C12.2099 4.27633 10.815 4.28299 9.41935 4.28299C8.64406 4.28299 7.86838 4.28299 7.0927 4.28299C5.70876 4.28573 4.68821 5.30688 4.68625 6.69202C4.68469 8.21246 4.68469 9.73303 4.68625 11.2537C4.68821 12.6365 5.7111 13.6565 7.09661 13.6585C8.22082 13.66 9.34517 13.66 10.4696 13.6585C10.5153 13.6563 10.5609 13.6642 10.6032 13.6816C10.6455 13.6989 10.6835 13.7254 10.7145 13.759C11.5466 14.6055 12.3805 15.4504 13.216 16.2937C13.3494 16.4291 13.4953 16.5317 13.6971 16.4945C13.9463 16.4491 14.0883 16.2597 14.0883 15.9712C14.0899 15.2471 14.0899 14.5233 14.0883 13.7998L14.0899 13.6127ZM12.2166 8.96798C12.2171 8.78279 12.2725 8.60192 12.3758 8.44822C12.479 8.29452 12.6255 8.1749 12.7967 8.10448C12.9679 8.03405 13.1561 8.01599 13.3375 8.05256C13.5189 8.08914 13.6855 8.17871 13.816 8.30996C13.9466 8.44121 14.0354 8.60825 14.0711 8.78996C14.1068 8.97167 14.0879 9.15991 14.0167 9.33086C13.9456 9.50182 13.8253 9.64782 13.6713 9.75043C13.5172 9.85304 13.3362 9.90764 13.1511 9.90733C12.9034 9.90447 12.6667 9.80444 12.4919 9.62878C12.3172 9.45311 12.2183 9.21584 12.2166 8.96798ZM10.3429 9.90733C10.1578 9.90772 9.97673 9.85318 9.8226 9.75062C9.66847 9.64806 9.54819 9.50208 9.47696 9.33113C9.40573 9.16018 9.38676 8.97195 9.42244 8.79021C9.45811 8.60847 9.54683 8.44139 9.67739 8.3101C9.80795 8.17881 9.97448 8.0892 10.1559 8.05259C10.3374 8.01598 10.5256 8.03403 10.6968 8.10444C10.868 8.17485 11.0145 8.29447 11.1178 8.44818C11.221 8.60189 11.2765 8.78277 11.277 8.96798C11.275 9.21553 11.176 9.45241 11.0013 9.62775C10.8267 9.80308 10.5903 9.9029 10.3429 9.90576V9.90733ZM6.56189 8.97581C6.56089 8.79055 6.61481 8.60916 6.71685 8.45457C6.81888 8.29998 6.96445 8.17915 7.13512 8.10734C7.3058 8.03554 7.49393 8.01598 7.67571 8.05117C7.85749 8.08635 8.02476 8.17469 8.15637 8.305C8.28797 8.43531 8.37799 8.60174 8.41505 8.78325C8.45211 8.96476 8.43454 9.1532 8.36456 9.32472C8.29459 9.49624 8.17535 9.64314 8.02193 9.74685C7.86851 9.85055 7.68779 9.9064 7.50264 9.90733C7.25493 9.90612 7.01758 9.80769 6.84165 9.63319C6.66573 9.4587 6.56527 9.22208 6.56189 8.97424V8.97581Z" fill="#A8ACBA"/>
</svg>
