<svg width="16" height="16" viewBox="0 0 16 16" fill="none" xmlns="http://www.w3.org/2000/svg">
<circle cx="8" cy="9" r="6" fill="#6B7280"/>
<rect x="0.287109" y="2.7251" width="4" height="2.85411" transform="rotate(-37.0463 0.287109 2.7251)" fill="#6B7280"/>
<rect x="12.9707" width="4" height="2.85411" transform="rotate(43.6623 12.9707 0)" fill="#6B7280"/>
<rect x="0.429688" y="14.1497" width="3.35072" height="2.28849" rx="1.14425" transform="rotate(-39.9065 0.429688 14.1497)" fill="#A8ACBA"/>
<rect x="13.3555" y="16.0081" width="3.35072" height="2.28849" rx="1.14425" transform="rotate(-135.977 13.3555 16.0081)" fill="#A8ACBA"/>
<path d="M4.6517 14.3734C5.66082 14.9834 6.82468 15.3049 8.0113 15.3015C9.2106 15.3015 10.3222 14.9849 11.3573 14.3729C11.7371 14.7459 12.1071 15.1188 12.4874 15.4819C13.2318 16.1918 14.359 16.1644 15.038 15.426C15.3331 15.1031 15.4912 14.6825 15.4799 14.2497C15.4687 13.8169 15.289 13.4047 14.9775 13.0968C14.601 12.7217 14.2193 12.3514 13.8324 11.986C13.7317 11.8913 13.7269 11.8194 13.784 11.6987C15.5345 8.03148 13.2958 3.7305 9.23094 2.94244C5.74929 2.26797 2.32721 4.55785 1.72321 7.95954C1.48874 9.22328 1.66277 10.527 2.22114 11.6897C2.28362 11.8213 2.26619 11.8927 2.1635 11.9902C1.76002 12.3727 1.35121 12.7513 0.972918 13.1565C0.118005 14.0728 0.526325 15.5543 1.73192 15.914C2.40665 16.1151 3.01066 15.9613 3.5178 15.479C3.899 15.1202 4.26954 14.7477 4.6517 14.3734ZM13.225 9.05572C13.2251 10.4077 12.677 11.7046 11.7008 12.6626C10.7245 13.6206 9.39967 14.1617 8.01613 14.1675C5.13413 14.1755 2.78204 11.8856 2.78156 9.07701C2.78105 8.40541 2.91598 7.7403 3.17864 7.11968C3.44131 6.49905 3.82655 5.93509 4.31236 5.46002C4.79817 4.98495 5.37503 4.60808 6.00996 4.35095C6.64489 4.09382 7.32545 3.96147 8.01275 3.96147C10.8759 3.95863 13.2231 6.24994 13.2246 9.05572H13.225ZM2.91137 12.8507L3.69944 13.688C3.35069 14.033 3.01017 14.3852 2.65174 14.7179C2.54 14.8098 2.39698 14.8572 2.25109 14.8508C2.10521 14.8443 1.96716 14.7844 1.86441 14.683C1.76167 14.5815 1.70176 14.4461 1.6966 14.3035C1.69143 14.1608 1.7414 14.0215 1.83655 13.9133C2.18578 13.5541 2.54809 13.2076 2.91088 12.8507H2.91137ZM13.1035 12.8479C13.4585 13.201 13.8082 13.5432 14.1507 13.892C14.2573 13.9991 14.3183 14.1418 14.3213 14.2912C14.3243 14.4406 14.269 14.5856 14.1667 14.6966C13.9661 14.9054 13.6024 14.9428 13.3796 14.7383C13.0114 14.4003 12.6666 14.0382 12.314 13.688L13.1035 12.8479Z" fill="#A8ACBA"/>
<path d="M-0.000127792 3.04745C0.00907516 3.53354 0.150034 3.96615 0.455671 4.33865C0.723528 4.6657 1.00107 4.98565 1.2791 5.30277C1.50336 5.55694 1.83855 5.59007 2.10253 5.37377C3.29053 4.40632 4.47577 3.43525 5.65828 2.46054C5.91161 2.25181 5.93873 1.91861 5.72851 1.66728C5.44516 1.32934 5.16083 0.990916 4.85907 0.669538C4.50429 0.290724 4.01696 0.0557833 3.49345 0.0111737C2.96993 -0.0334359 2.44834 0.115534 2.03181 0.428625C1.56827 0.778874 1.12071 1.14995 0.684292 1.53191C0.228016 1.93422 0.0139189 2.45676 -0.000127792 3.04745ZM4.47206 1.95552L1.7998 4.14601C1.6385 3.95668 1.47915 3.78534 1.34159 3.5998C1.19946 3.41223 1.13543 3.17896 1.16239 2.94707C1.18936 2.71517 1.30533 2.50189 1.4869 2.35026C1.89086 2.00317 2.30306 1.6657 2.72349 1.33785C2.8956 1.19879 3.11334 1.12521 3.33659 1.13069C3.55985 1.13617 3.77354 1.22034 3.93828 1.36767C4.13106 1.54138 4.28945 1.75342 4.47206 1.95552Z" fill="#6B7280"/>
<path d="M16.0019 3.05551C15.9874 2.4402 15.767 1.91956 15.3064 1.52056C14.8787 1.14712 14.4393 0.785036 13.9874 0.439519C13.5697 0.11789 13.0426 -0.0365996 12.5127 0.00734062C11.9828 0.0512808 11.4898 0.290366 11.1335 0.676174C10.8352 0.992819 10.5571 1.32839 10.2796 1.66303C10.0616 1.92524 10.0907 2.2504 10.3551 2.46765C11.528 3.43447 12.7034 4.39812 13.8814 5.35863C14.172 5.59528 14.5009 5.56168 14.7445 5.28006C15.0133 4.9691 15.2831 4.65813 15.5437 4.34054C15.8426 3.97616 16.0044 3.52251 16.0019 3.05551ZM11.5356 1.9579C11.7041 1.76479 11.8499 1.57594 12.0199 1.40886C12.1822 1.24613 12.4007 1.14828 12.6328 1.13437C12.8649 1.12046 13.094 1.19148 13.2754 1.3336C13.7007 1.66397 14.1176 2.00491 14.5261 2.35643C14.8002 2.59308 14.8961 2.90215 14.821 3.25571C14.7411 3.63152 14.4268 3.84925 14.2054 4.14649L11.5356 1.9579Z" fill="#6B7280"/>
<path d="M7.4222 8.49799C6.83574 8.49799 6.26913 8.49515 5.70301 8.49799C5.27394 8.50083 4.99017 8.88792 5.14174 9.26318C5.23473 9.49269 5.41584 9.62566 5.6696 9.62803C6.44832 9.63371 7.2272 9.63371 8.00624 9.62803C8.08219 9.62886 8.15754 9.61481 8.22783 9.58669C8.29812 9.55857 8.36192 9.51697 8.41547 9.46433C8.46902 9.4117 8.51123 9.34911 8.53959 9.28025C8.56795 9.2114 8.58189 9.13769 8.58059 9.06348C8.58511 8.18424 8.58511 7.305 8.58059 6.42576C8.58228 6.35033 8.56847 6.27534 8.53997 6.20523C8.51147 6.13511 8.46886 6.0713 8.41468 6.01756C8.3605 5.96382 8.29583 5.92124 8.2245 5.89236C8.15318 5.86347 8.07667 5.84885 7.99946 5.84938C7.67839 5.85222 7.42656 6.10255 7.42462 6.43475C7.41978 7.11476 7.4222 7.79289 7.4222 8.49799Z" fill="white"/>
</svg>
