<svg width="17" height="16" viewBox="0 0 17 16" fill="none" xmlns="http://www.w3.org/2000/svg">
<path d="M8 1C11.3137 1 14 3.46243 14 6.5C14 7.03573 14.1534 7.565 14.4304 8.02352C14.7967 8.62969 15 9.29767 15 10C15 12.7614 11.866 15 8 15C4.13401 15 1 12.7614 1 10C1 9.29785 1.20293 8.62978 1.56886 8.0236C1.8457 7.56499 2 7.03569 2 6.5C2 3.46243 4.68629 1 8 1Z" fill="#424CA8"/>
<rect x="5" y="7" width="1.5" height="2" rx="0.75" fill="white"/>
<rect x="10" y="7" width="1.5" height="2" rx="0.75" fill="white"/>
<path d="M6.23628 1.85092C6.23628 0.696184 4.92619 -0.220133 3.32866 0.0465379C0.983455 0.43699 -0.0882111 5.03602 0.00566358 5.86178C0.0721235 6.4458 1.43871 7.29233 3.04288 6.69253C4.09046 6.30042 4.67115 5.48794 4.99016 4.61566" fill="#2D3370"/>
<path d="M9.78118 1.85092C9.78118 0.696184 11.0913 -0.220133 12.6888 0.0465379C15.034 0.43699 16.1057 5.03602 16.0118 5.86178C15.9453 6.4458 14.5788 7.29233 12.9746 6.69253C11.927 6.30042 11.4335 5.48794 11.1145 4.61566" fill="#2D3370"/>
<path d="M7.73814 11.7732C7.88845 11.9034 8.11155 11.9034 8.26186 11.7732L8.92102 11.2024C9.20098 10.9599 9.02951 10.5 8.65916 10.5H7.34084C6.97048 10.5 6.79902 10.9599 7.07898 11.2024L7.73814 11.7732Z" fill="#2D3370"/>
</svg>
