<svg width="16" height="16" viewBox="0 0 16 16" fill="none" xmlns="http://www.w3.org/2000/svg">
<path d="M1.35447 12.1196C1.37012 11.6826 1.51146 11.3437 1.80335 11.0822C1.92443 10.974 1.91753 10.8869 1.86919 10.7442C1.7541 10.4044 1.62611 10.1944 1.18229 10.1686C0.477432 10.1276 0.00736627 9.51795 0.00276235 8.80974C-0.000920784 8.26945 -0.000920784 7.72948 0.00276235 7.18981C0.00828706 6.39503 0.606333 5.79458 1.40327 5.79826C1.58743 5.79826 1.65971 5.7407 1.73798 5.57493C1.88945 5.2526 1.93181 5.02513 1.64361 4.71431C1.20025 4.23634 1.25686 3.47932 1.70482 2.99767C2.11917 2.55193 2.54965 2.12139 2.99623 1.70605C3.53305 1.20828 4.34886 1.23775 4.87831 1.76775C5.02011 1.90912 5.12279 1.91325 5.3028 1.85155C5.62922 1.73966 5.80094 1.60612 5.82488 1.19999C5.86585 0.489942 6.47402 0.00736754 7.18809 0.00276283C7.72798 -0.000920943 8.26802 -0.000920943 8.80821 0.00276283C9.60331 0.00874896 10.2032 0.605515 10.2014 1.40259C10.2014 1.58402 10.24 1.68855 10.4265 1.73276C10.5493 1.76307 10.6669 1.81148 10.7755 1.87642C10.9016 1.95102 10.9753 1.91003 11.0683 1.81656C11.5489 1.33168 12.1783 1.21794 12.734 1.51863C12.8737 1.59766 13.0023 1.69507 13.1161 1.80827C13.4748 2.15593 13.8265 2.51141 14.1778 2.86735C14.8035 3.5005 14.8039 4.31324 14.1732 4.94178C14.0811 5.03387 14.0512 5.11124 14.123 5.22037C14.126 5.22531 14.1285 5.23055 14.1303 5.23602C14.1985 5.39994 14.2408 5.58322 14.3421 5.7232C14.4595 5.88667 14.6685 5.77478 14.8347 5.80793C15.5253 5.94607 15.9913 6.48482 15.9968 7.18934C16.0011 7.72963 16.0011 8.26961 15.9968 8.80928C15.9903 9.60497 15.3927 10.205 14.5967 10.2022C14.4153 10.2022 14.3403 10.2584 14.2616 10.4246C14.1096 10.7469 14.0682 10.9749 14.3536 11.2857C14.7956 11.7627 14.739 12.5221 14.2924 13.0028C13.8868 13.4407 13.4637 13.8653 13.0272 14.2718C12.4623 14.7968 11.6557 14.7705 11.1056 14.2207C10.9753 14.09 10.8786 14.0771 10.7101 14.1443C10.3993 14.2673 10.1885 14.3704 10.1691 14.8014C10.1374 15.5124 9.52459 15.9926 8.80776 15.9986C8.26787 16.0023 7.72784 16.0023 7.18764 15.9986C6.39347 15.9922 5.7922 15.3931 5.79588 14.5974C5.79588 14.4132 5.73739 14.3418 5.57303 14.2622C5.25076 14.1061 5.02057 14.0715 4.71256 14.358C4.24158 14.7945 3.4824 14.7443 3.00911 14.3064C2.55425 13.8855 2.12239 13.4389 1.69239 12.9913C1.47274 12.7544 1.35187 12.4426 1.35447 12.1196ZM11.5848 8.01036C11.5848 6.04184 9.9882 4.41869 8.04535 4.41454C6.01962 4.40948 4.41699 6.00224 4.41515 8.02279C4.41515 9.97703 6.03159 11.5827 8.00621 11.5845C9.96748 11.5864 11.5848 9.97151 11.5848 8.01036Z" fill="#A8ACBA"/>
<path d="M5.51761 7.98553C5.52018 7.49418 5.66848 7.01463 5.94374 6.60764C6.219 6.20065 6.60883 5.88452 7.06385 5.69928C7.51888 5.51404 8.01862 5.46802 8.49981 5.56706C8.98101 5.6661 9.42198 5.90575 9.7669 6.25564C10.1118 6.60552 10.3452 7.04992 10.4374 7.53254C10.5296 8.01517 10.4766 8.51431 10.2849 8.96675C10.0933 9.41919 9.77177 9.80458 9.361 10.0741C8.95024 10.3436 8.46872 10.4852 7.97747 10.4808C7.32088 10.4747 6.69346 10.2088 6.23245 9.74113C5.77145 9.27349 5.51441 8.64225 5.51761 7.98553Z" fill="#6B7280"/>
</svg>
