<svg width="15" height="17" viewBox="0 0 15 17" fill="none" xmlns="http://www.w3.org/2000/svg">
<path d="M9.85876 0.0126262V0.240917C9.85876 1.2482 9.85876 2.25515 9.85876 3.26177C9.85876 4.16704 10.4852 4.74447 11.464 4.74744C12.5549 4.74744 13.6454 4.74744 14.7356 4.74744H14.9984V4.96386C14.9984 8.47895 14.9984 11.9939 14.9984 15.5086C14.9984 16.2683 14.5441 16.8239 13.8002 16.9715C13.6686 16.9936 13.5349 17.0031 13.4012 16.9998C9.46813 16.9998 5.53346 16.9998 1.59717 16.9998C0.631782 16.9998 0.000536327 16.4184 0 15.527C0 10.8445 0 6.1618 0 1.47897C0 0.59203 0.624811 0.00321895 1.57143 0.0022285C4.26808 -0.000742834 6.96474 -0.000742834 9.66139 0.0022285C9.71985 0.00173328 9.77831 0.00816924 9.85876 0.0126262ZM7.5193 8.30562H3.3869C3.31289 8.30562 3.2394 8.30562 3.16593 8.30909C3.07403 8.31445 2.98452 8.33831 2.90368 8.37902C2.82284 8.41973 2.75263 8.47628 2.69799 8.54472C2.64335 8.61316 2.60561 8.69181 2.5874 8.77515C2.56919 8.8585 2.57096 8.94452 2.5926 9.02716C2.66822 9.33024 2.92405 9.49168 3.33542 9.49168C6.11109 9.49168 8.8864 9.49168 11.6614 9.49168C11.7615 9.49381 11.8615 9.48416 11.959 9.46296C12.0494 9.43989 12.1332 9.39855 12.2042 9.34195C12.2752 9.28535 12.3317 9.21489 12.3696 9.13566C12.4076 9.05643 12.426 8.97041 12.4235 8.88382C12.421 8.79723 12.3978 8.71221 12.3554 8.63494C12.2213 8.39525 11.9998 8.30413 11.7118 8.30463C10.3146 8.3081 8.91697 8.30562 7.5193 8.30562ZM7.5193 10.6782H3.3869C3.31289 10.6782 3.2394 10.6782 3.16593 10.6817C3.07398 10.6869 2.9844 10.7107 2.90346 10.7513C2.82252 10.7919 2.75219 10.8484 2.6974 10.9168C2.64261 10.9852 2.60469 11.0638 2.58631 11.1472C2.56793 11.2305 2.56952 11.3166 2.59099 11.3993C2.66661 11.7028 2.92244 11.8643 3.33327 11.8643C6.10894 11.8643 8.88425 11.8643 11.6592 11.8643C11.7593 11.8662 11.8593 11.8566 11.9569 11.8356C12.0473 11.8126 12.1311 11.7713 12.2022 11.7148C12.2733 11.6583 12.3299 11.5879 12.368 11.5088C12.406 11.4296 12.4246 11.3436 12.4223 11.2571C12.4201 11.1705 12.397 11.0854 12.3548 11.0081C12.2213 10.7684 11.9998 10.6762 11.7112 10.6772C10.3157 10.6827 8.91805 10.6787 7.52038 10.6787L7.5193 10.6782ZM7.49464 14.2374C8.87264 14.2374 10.2503 14.2374 11.6276 14.2374C11.7344 14.2402 11.8411 14.2312 11.9456 14.2107C12.0398 14.1886 12.1273 14.1469 12.2012 14.0886C12.2751 14.0303 12.3335 13.9571 12.3718 13.8746C12.4102 13.7922 12.4274 13.7027 12.4222 13.613C12.417 13.5234 12.3896 13.4361 12.342 13.3579C12.1977 13.1222 11.9665 13.0499 11.6839 13.0499C8.89498 13.0538 6.10608 13.0546 3.31718 13.0523C3.25657 13.0523 3.19651 13.0523 3.13644 13.0578C3.04998 13.0664 2.96639 13.0915 2.8909 13.1314C2.81542 13.1713 2.74966 13.2251 2.69775 13.2895C2.64585 13.354 2.60891 13.4276 2.58925 13.5058C2.56958 13.5841 2.56762 13.6652 2.58348 13.7442C2.64838 14.0586 2.90527 14.2394 3.30055 14.2394C4.69965 14.2394 6.09804 14.2389 7.49571 14.2379L7.49464 14.2374ZM7.50482 5.93301C7.08381 5.93301 6.66225 5.92955 6.2407 5.93301C5.854 5.93698 5.57726 6.18062 5.57082 6.51044C5.56439 6.84026 5.84381 7.11213 6.2364 7.1156C7.07915 7.12253 7.92209 7.12253 8.76519 7.1156C9.15725 7.11213 9.43453 6.84322 9.42488 6.50598C9.41576 6.17765 9.13633 5.93698 8.74964 5.93301C8.33452 5.92856 7.92101 5.93351 7.5059 5.93351L7.50482 5.93301ZM4.49334 6.5352C4.49522 6.37995 4.44727 6.22765 4.35551 6.09754C4.26376 5.96743 4.13233 5.86533 3.97779 5.80412C3.82326 5.74291 3.65254 5.72535 3.4872 5.75363C3.32186 5.78191 3.16931 5.85477 3.04878 5.96303C2.92824 6.07129 2.84513 6.21009 2.80994 6.36192C2.77475 6.51375 2.78906 6.67179 2.85105 6.81612C2.91304 6.96045 3.01993 7.0846 3.15825 7.17288C3.29658 7.26117 3.46012 7.30965 3.62825 7.3122C3.85461 7.31525 4.07303 7.23516 4.23545 7.08954C4.39788 6.94393 4.49102 6.74471 4.49441 6.5357L4.49334 6.5352Z" fill="#A8ACBA"/>
</svg>
