<svg width="19" height="20" viewBox="0 0 19 20" fill="none" xmlns="http://www.w3.org/2000/svg">
<path opacity="0.7" d="M13.8421 0.504709C13.9297 0.528373 14.0172 0.553231 14.106 0.574528C14.6559 0.700656 15.1479 1.00675 15.504 1.44423C15.8602 1.88171 16.06 2.42553 16.0718 2.98945C16.0801 3.37045 16.0718 3.75262 16.0718 4.14308H0.000976562C0.000976562 4.06617 0.000976562 3.98808 0.000976562 3.90644C0.0210962 3.43316 -0.0132261 2.95989 0.0743533 2.50435C0.276733 1.45603 1.10519 0.70467 2.1585 0.533104C2.19446 0.524942 2.22969 0.513887 2.26384 0.5L13.8421 0.504709Z" fill="#424CA8"/>
<path opacity="0.7" d="M19 15.8639C18.9278 16.1692 18.8817 16.4804 18.7799 16.7762C18.4602 17.7075 17.809 18.4888 16.9504 18.9713C16.0919 19.4538 15.0858 19.6038 14.1238 19.3927C13.1618 19.1817 12.3109 18.6243 11.7333 17.8268C11.1557 17.0292 10.8916 16.0471 10.9913 15.0675C11.091 14.0879 11.5476 13.1792 12.2741 12.5143C13.0005 11.8494 13.9462 11.4748 14.931 11.4618C15.9159 11.4488 16.8711 11.7983 17.6149 12.4438C18.3586 13.0893 18.839 13.9857 18.9645 14.9624C18.9716 15.0168 18.9882 15.0688 19 15.1221V15.8639ZM14.9856 15.4841V15.2641C14.9856 14.5352 14.9856 13.8067 14.9856 13.0787C14.9903 13.0168 14.9903 12.9548 14.9856 12.8929C14.9771 12.7997 14.9331 12.7134 14.8625 12.6519C14.7919 12.5904 14.7004 12.5585 14.6069 12.5628C14.5129 12.565 14.4236 12.6043 14.3586 12.6722C14.2936 12.74 14.2582 12.8309 14.2601 12.9248C14.2601 13.8998 14.2601 14.8752 14.2601 15.8509C14.2572 15.8964 14.2636 15.942 14.279 15.9849C14.2944 16.0278 14.3184 16.0671 14.3496 16.1003C14.3807 16.1336 14.4184 16.1601 14.4602 16.1783C14.502 16.1964 14.5471 16.2058 14.5927 16.2059C15.2239 16.213 15.8551 16.213 16.4863 16.2059C16.5316 16.2048 16.5763 16.1948 16.6177 16.1763C16.6591 16.1578 16.6964 16.1313 16.7274 16.0983C16.7585 16.0652 16.7827 16.0263 16.7986 15.9839C16.8145 15.9414 16.8217 15.8962 16.82 15.8509C16.8218 15.8044 16.8141 15.7579 16.7976 15.7144C16.781 15.6708 16.7559 15.631 16.7236 15.5974C16.6914 15.5637 16.6527 15.5369 16.6099 15.5184C16.5671 15.5 16.521 15.4903 16.4744 15.4901C16.0543 15.4806 15.6341 15.4901 15.2152 15.4901L14.9856 15.4841Z" fill="#424CA8"/>
<path d="M0.00828548 4.89331H16.0578V10.8532C14.6435 10.5633 13.3357 10.8011 12.17 11.6601C11.0042 12.5191 10.3864 13.6798 10.2338 15.1174H10.0586C7.57325 15.1174 5.08789 15.1174 2.60253 15.1174C1.33499 15.1174 0.313631 14.2986 0.0532593 13.0823C0.0178151 12.919 -4.06662e-05 12.7524 6.95417e-08 12.5854C6.95417e-08 10.0699 6.95417e-08 7.55395 6.95417e-08 5.03766C0.00118358 4.99506 0.00473496 4.95247 0.00828548 4.89331ZM3.84876 10.3704H2.64395C2.32085 10.3704 2.19304 10.497 2.19185 10.8177C2.19185 11.6151 2.19185 12.4126 2.19185 13.2101C2.19185 13.5177 2.32322 13.655 2.62975 13.6574C3.43374 13.6574 4.23734 13.6574 5.04055 13.6574C5.34944 13.6574 5.48318 13.5201 5.48436 13.2137C5.48436 12.4107 5.48436 11.6072 5.48436 10.8034C5.48436 10.4982 5.34708 10.3704 5.03582 10.3704H3.84876ZM9.50118 12.0079C9.50118 11.6068 9.50118 11.2046 9.50118 10.8034C9.50118 10.5041 9.36981 10.3716 9.07275 10.3716C8.26323 10.3716 7.45372 10.3716 6.6442 10.3716C6.34833 10.3716 6.21459 10.5017 6.2134 10.8023C6.2134 11.6116 6.2134 12.4209 6.2134 13.2302C6.2134 13.5165 6.34951 13.6562 6.63355 13.6574C7.44859 13.6621 8.26442 13.6621 9.08104 13.6574C9.37336 13.6574 9.5 13.513 9.50118 13.2125C9.50118 12.8114 9.50118 12.4091 9.50118 12.0079ZM3.82035 9.63444H5.0512C5.35063 9.63444 5.4891 9.50073 5.49028 9.20848C5.49028 8.39916 5.49028 7.58984 5.49028 6.78053C5.49028 6.49064 5.35773 6.3534 5.0725 6.35222C4.25115 6.35222 3.4294 6.35222 2.60726 6.35222C2.3315 6.35222 2.20014 6.49184 2.19896 6.76753C2.19896 7.58236 2.19896 8.39759 2.19896 9.21321C2.19896 9.496 2.33742 9.63089 2.62383 9.63326C3.01912 9.63681 3.42033 9.63444 3.82272 9.63444H3.82035ZM9.50118 7.98976C9.50118 7.58156 9.50118 7.17455 9.50118 6.76634C9.50118 6.49184 9.36863 6.35459 9.09169 6.35222C8.27034 6.35222 7.44859 6.35222 6.62645 6.35222C6.34951 6.35222 6.21459 6.4871 6.2134 6.76397C6.2134 7.58512 6.2134 8.40665 6.2134 9.22858C6.2134 9.5019 6.35661 9.63326 6.63355 9.63326C7.44859 9.63326 8.26402 9.63326 9.07985 9.63326C9.36389 9.63326 9.5 9.49482 9.50118 9.21203C9.50236 8.80501 9.50118 8.39679 9.50118 7.98976Z" fill="#2D3370"/>
<path d="M2.94336 11.1099H4.73637V12.9202H2.94336V11.1099Z" fill="#424CA8"/>
<path d="M8.75547 11.1099V12.9202H6.95654V11.1099H8.75547Z" fill="#424CA8"/>
<path d="M2.93848 7.08691H4.73622V8.89368H2.93848V7.08691Z" fill="#424CA8"/>
<path d="M8.75581 8.89731H6.95215V7.08936H8.75581V8.89731Z" fill="#424CA8"/>
</svg>
