<svg width="16" height="17" viewBox="0 0 16 17" fill="none" xmlns="http://www.w3.org/2000/svg">
<path d="M9.68427 16.3006H3.1617C2.43593 16.3006 2.00117 15.8528 2 15.1029C2 10.4763 2 5.85009 2 1.22431C2 0.483975 2.43359 0.0385573 3.15235 0.0373535C5.60353 0.0373535 8.05431 0.0373535 10.5047 0.0373535H10.6602C10.5892 0.732543 10.5829 1.43315 10.6415 2.12957C10.6843 2.55037 10.8713 2.94164 11.1691 3.23311C11.4669 3.52459 11.8558 3.69715 12.266 3.71977C12.7872 3.74144 13.3085 3.73179 13.8309 3.72938C13.9552 3.72011 14.0789 3.70364 14.2013 3.68004V9.87356C12.3314 9.27889 10.7081 9.66894 9.56623 11.3386C8.45245 12.9661 8.58335 14.6587 9.68427 16.3006ZM8.09834 6.28266H4.9884C4.93237 6.27845 4.87613 6.27845 4.8201 6.28266C4.73254 6.29182 4.65191 6.3358 4.59538 6.40527C4.53884 6.47475 4.51086 6.56421 4.5174 6.65461C4.5144 6.69992 4.52028 6.74542 4.5347 6.78834C4.54912 6.83125 4.57179 6.87072 4.60135 6.90442C4.6309 6.93813 4.66675 6.96535 4.70674 6.98448C4.74673 7.00361 4.79006 7.01424 4.83413 7.01575C4.88438 7.01575 4.93463 7.01575 4.98606 7.01575H11.2235C11.2851 7.01755 11.3468 7.01516 11.4081 7.00855C11.481 7.00034 11.5489 6.9661 11.5999 6.9118C11.6509 6.8575 11.6819 6.78653 11.6874 6.71119C11.719 6.44154 11.5706 6.28145 11.2936 6.28025C10.2293 6.28105 9.1642 6.28186 8.09834 6.28266ZM7.39711 8.12806H4.9919C4.91931 8.12639 4.84677 8.13328 4.77569 8.14854C4.70102 8.16523 4.63449 8.20857 4.58786 8.27092C4.54123 8.33327 4.51752 8.41057 4.52091 8.4892C4.51347 8.57066 4.53494 8.65215 4.58136 8.71855C4.62778 8.78496 4.69598 8.83177 4.77335 8.85034C4.85026 8.8663 4.92868 8.87318 5.00709 8.87082H9.78363C9.85091 8.87205 9.91817 8.8672 9.98464 8.85636C10.0549 8.84699 10.1199 8.8135 10.1693 8.76128C10.2188 8.70907 10.2496 8.6412 10.2569 8.56867C10.3037 8.30022 10.1401 8.12685 9.83738 8.12685C9.01928 8.12685 8.20703 8.12806 7.3936 8.12806H7.39711ZM6.48317 5.17276C7.01493 5.17276 7.5467 5.17276 8.07964 5.17276C8.33792 5.17276 8.47349 5.02951 8.46298 4.78033C8.45479 4.56244 8.32507 4.43964 8.08431 4.43844C7.41698 4.43844 6.75082 4.43844 6.08465 4.43844H4.89139C4.81489 4.43032 4.73803 4.44992 4.67404 4.49387C4.61005 4.53781 4.56293 4.60334 4.54078 4.6792C4.45313 4.94523 4.61674 5.17515 4.90425 5.17755C5.42666 5.17515 5.95259 5.17276 6.47968 5.17276H6.48317Z" fill="#2D3370"/>
<g opacity="0.7">
<path d="M15.9997 13.6776C15.999 14.3374 15.8078 14.982 15.4505 15.5296C15.0933 16.0772 14.586 16.503 13.9932 16.753C13.4005 17.0029 12.7489 17.0657 12.1214 16.9334C11.4939 16.801 10.9187 16.4795 10.4691 16.0097C10.0194 15.5399 9.71541 14.943 9.59584 14.2948C9.47628 13.6467 9.54648 12.9765 9.79754 12.3695C10.0486 11.7626 10.4692 11.2462 11.0058 10.886C11.5425 10.5258 12.171 10.3381 12.8115 10.3467C13.6625 10.3547 14.4759 10.7096 15.0735 11.3339C15.671 11.9582 16.0041 12.8009 15.9997 13.6776ZM12.6584 14.129C12.4106 13.869 12.1909 13.6307 11.9571 13.4007C11.9246 13.3667 11.8859 13.3395 11.8431 13.3209C11.8004 13.3022 11.7546 13.2924 11.7082 13.292C11.6618 13.2917 11.6158 13.3007 11.5728 13.3186C11.5297 13.3365 11.4906 13.363 11.4575 13.3965C11.4244 13.43 11.3981 13.4699 11.38 13.5139C11.3619 13.5579 11.3524 13.6052 11.352 13.653C11.3516 13.7007 11.3604 13.7481 11.3778 13.7924C11.3952 13.8367 11.4209 13.8771 11.4534 13.9111C11.804 14.2723 12.1546 14.6406 12.5134 14.9946C12.7238 15.2064 12.9809 15.1547 13.1153 14.885C13.4504 14.194 13.785 13.5031 14.1193 12.8121C14.1381 12.7766 14.1549 12.74 14.1695 12.7025C14.1969 12.5997 14.1885 12.4902 14.1458 12.3931C14.1031 12.2959 14.0288 12.2172 13.9358 12.1705C13.7616 12.0946 13.6085 12.1705 13.5045 12.3799C13.4098 12.5701 13.3199 12.7615 13.2264 12.9529L12.6584 14.129Z" fill="#424CA8"/>
</g>
<g opacity="0.7">
<path d="M13.0899 2.95421C12.8562 2.95421 12.6225 2.95421 12.3887 2.95421C12.1161 2.95424 11.8544 2.84378 11.6602 2.64668C11.466 2.44958 11.3549 2.18167 11.3509 1.90089C11.3392 1.39289 11.3509 0.884894 11.3509 0.376893C11.348 0.300787 11.3692 0.225761 11.4114 0.163201C11.4536 0.100642 11.5144 0.0539424 11.5846 0.0301841C11.6491 -5.93459e-05 11.7214 -0.00783137 11.7906 0.00802443C11.8598 0.0238802 11.922 0.0624985 11.968 0.118059L14.1091 2.32342C14.1659 2.37623 14.2039 2.44715 14.2171 2.52483C14.2302 2.60251 14.2177 2.68248 14.1815 2.75198C14.1532 2.81858 14.1052 2.87424 14.0443 2.91101C13.9834 2.94777 13.9128 2.96373 13.8426 2.95662H13.1028L13.0899 2.95421Z" fill="#424CA8"/>
</g>
</svg>
