<svg width="12" height="12" viewBox="0 0 12 12" fill="none" xmlns="http://www.w3.org/2000/svg">
<path d="M2.4 1.14995C2.40178 1.18137 2.4134 1.21143 2.43321 1.23588C2.45302 1.26033 2.48001 1.27793 2.51038 1.28619C2.54074 1.29445 2.57293 1.29296 2.6024 1.28192C2.63186 1.27087 2.65711 1.25084 2.67457 1.22466C2.69202 1.19848 2.7008 1.16747 2.69966 1.13602C2.69852 1.10457 2.68752 1.07428 2.66822 1.04943C2.64891 1.02458 2.62228 1.00643 2.59209 0.997552C2.5619 0.988672 2.52969 0.98951 2.5 0.999949H2C1.73478 0.999949 1.48043 1.10531 1.29289 1.29284C1.10536 1.48038 1 1.73473 1 1.99995V4.49995C1 5.2956 1.31607 6.05866 1.87868 6.62127C2.44129 7.18388 3.20435 7.49995 4 7.49995M4 7.49995C4.79565 7.49995 5.55871 7.18388 6.12132 6.62127C6.68393 6.05866 7 5.2956 7 4.49995V1.99995C7 1.73473 6.89464 1.48038 6.70711 1.29284C6.51957 1.10531 6.26522 0.999949 6 0.999949H5.5C5.49015 1.0098 5.48234 1.02149 5.47701 1.03436C5.47168 1.04723 5.46893 1.06102 5.46893 1.07495C5.46893 1.08888 5.47168 1.10267 5.47701 1.11554C5.48234 1.12841 5.49015 1.1401 5.5 1.14995C5.50985 1.1598 5.52154 1.16761 5.53441 1.17294C5.54728 1.17827 5.56107 1.18101 5.575 1.18101C5.58893 1.18101 5.60272 1.17827 5.61559 1.17294C5.62846 1.16761 5.64015 1.1598 5.65 1.14995M4 7.49995V8C4 8.79565 4.31607 9.55871 4.87868 10.1213C5.44129 10.6839 6.20435 11 7 11C7.79565 11 8.55871 10.6839 9.12132 10.1213C9.68393 9.55871 10 8.79565 10 8V6M10 6C10.5523 6 11 5.55228 11 5C11 4.44772 10.5523 4 10 4C9.44772 4 9 4.44772 9 5C9 5.55228 9.44772 6 10 6Z" stroke="#2D3370" stroke-width="1.3" stroke-linecap="round" stroke-linejoin="round"/>
</svg>
