<svg width="16" height="16" viewBox="0 0 16 16" fill="none" xmlns="http://www.w3.org/2000/svg">
<path d="M6.66665 3.44799C6.66665 2.52133 5.61532 1.78599 4.33332 1.99999C2.45132 2.31333 1.59132 6.00399 1.66665 6.66666C1.71999 7.13533 2.81665 7.81466 4.10399 7.33333C4.94465 7.01866 5.41065 6.36666 5.66665 5.66666M9.51139 3.44799C9.51139 2.52133 10.5627 1.78599 11.8447 1.99999C13.7267 2.31333 14.5867 6.00399 14.5114 6.66666C14.4581 7.13533 13.3614 7.81466 12.0741 7.33333C11.2334 7.01866 10.8374 6.36666 10.5814 5.66666M5.33333 9.33325V9.66659M10.6667 9.33325V9.66659M2.94667 7.49798C2.76009 8.21845 2.666 8.95974 2.66667 9.70398C2.66667 12.4853 5.05467 14 8 14C10.9453 14 13.3333 12.4853 13.3333 9.70398C13.3333 8.99664 13.2253 8.23731 13.0047 7.49798M6.84267 3.44331C7.22386 3.36842 7.61154 3.33157 8 3.33331C8.52 3.33331 9 3.40531 9.44067 3.53731M7.5 10.8333H8.5L8 11.3333L7.5 10.8333Z" stroke="#6B7280" stroke-width="1.5" stroke-linecap="round" stroke-linejoin="round"/>
</svg>
