<svg width="16" height="16" viewBox="0 0 16 16" fill="none" xmlns="http://www.w3.org/2000/svg">
<path d="M13.3333 4.66659H11.3333C10.9797 4.66659 10.6406 4.52611 10.3905 4.27606C10.1405 4.02601 10 3.68687 10 3.33325V1.33325M2 5.06665V13.6C2 13.8829 2.11238 14.1542 2.31242 14.3542C2.51246 14.5543 2.78377 14.6667 3.06667 14.6667H9.6M6 11.9999C5.64638 11.9999 5.30724 11.8594 5.05719 11.6094C4.80714 11.3593 4.66667 11.0202 4.66667 10.6666V2.66659C4.66667 2.31296 4.80714 1.97382 5.05719 1.72378C5.30724 1.47373 5.64638 1.33325 6 1.33325H10.6667L13.3333 3.99992V10.6666C13.3333 11.0202 13.1929 11.3593 12.9428 11.6094C12.6928 11.8594 12.3536 11.9999 12 11.9999H6Z" stroke="#6B7280" stroke-width="1.5" stroke-linecap="round" stroke-linejoin="round"/>
</svg>
