<svg width="10" height="13" viewBox="0 0 10 13" fill="none" xmlns="http://www.w3.org/2000/svg">
<path d="M1 7.83325C1 7.83325 1.5 7.33325 3 7.33325C4.5 7.33325 5.5 8.33325 7 8.33325C8.5 8.33325 9 7.83325 9 7.83325V1.83325C9 1.83325 8.5 2.33325 7 2.33325C5.5 2.33325 4.5 1.33325 3 1.33325C1.5 1.33325 1 1.83325 1 1.83325V7.83325Z" fill="#F04438"/>
<path d="M1 7.83325C1 7.83325 1.5 7.33325 3 7.33325C4.5 7.33325 5.5 8.33325 7 8.33325C8.5 8.33325 9 7.83325 9 7.83325V1.83325C9 1.83325 8.5 2.33325 7 2.33325C5.5 2.33325 4.5 1.33325 3 1.33325C1.5 1.33325 1 1.83325 1 1.83325V7.83325ZM1 7.83325V11.3333" stroke="#F04438" stroke-width="1.5" stroke-linecap="round" stroke-linejoin="round"/>
</svg>
