<svg width="10" height="13" viewBox="0 0 10 13" fill="none" xmlns="http://www.w3.org/2000/svg">
<path d="M1 8.1665C1 8.1665 1.5 7.6665 3 7.6665C4.5 7.6665 5.5 8.6665 7 8.6665C8.5 8.6665 9 8.1665 9 8.1665V2.1665C9 2.1665 8.5 2.6665 7 2.6665C5.5 2.6665 4.5 1.6665 3 1.6665C1.5 1.6665 1 2.1665 1 2.1665V8.1665Z" fill="#F7AA19"/>
<path d="M1 8.1665C1 8.1665 1.5 7.6665 3 7.6665C4.5 7.6665 5.5 8.6665 7 8.6665C8.5 8.6665 9 8.1665 9 8.1665V2.1665C9 2.1665 8.5 2.6665 7 2.6665C5.5 2.6665 4.5 1.6665 3 1.6665C1.5 1.6665 1 2.1665 1 2.1665V8.1665ZM1 8.1665V11.6665" stroke="#F7AA19" stroke-width="1.5" stroke-linecap="round" stroke-linejoin="round"/>
</svg>
