<svg width="16" height="16" viewBox="0 0 16 16" fill="none" xmlns="http://www.w3.org/2000/svg">
<path d="M5.99902 14.6676V8.58423C5.99902 8.26206 6.26019 8.0009 6.58236 8.0009H9.41569C9.73786 8.0009 9.99902 8.26206 9.99902 8.58423V14.6676M13.999 13.3342V6.28619C13.999 6.10618 13.9159 5.93626 13.7738 5.82574L8.35716 1.61278C8.14651 1.44894 7.85154 1.44894 7.64089 1.61278L2.22422 5.82574C2.08213 5.93626 1.99902 6.10618 1.99902 6.2862V13.3342C1.99902 13.6879 2.1395 14.027 2.38955 14.277C2.6396 14.5271 2.97873 14.6676 3.33236 14.6676H12.6657C13.0193 14.6676 13.3585 14.5271 13.6085 14.277C13.8585 14.027 13.999 13.6879 13.999 13.3342Z" stroke="#6B7280" stroke-width="1.5" stroke-linecap="round" stroke-linejoin="round"/>
</svg>
