<svg width="18" height="19" viewBox="0 0 18 19" fill="none" xmlns="http://www.w3.org/2000/svg">
<path d="M1.5 4.33333H3.16667M3.16667 4.33333H16.5M3.16667 4.33333V16C3.16667 16.442 3.34226 16.866 3.65482 17.1785C3.96738 17.4911 4.39131 17.6667 4.83333 17.6667H13.1667C13.6087 17.6667 14.0326 17.4911 14.3452 17.1785C14.6577 16.866 14.8333 16.442 14.8333 16V4.33333H3.16667ZM5.66667 4.33333V2.66667C5.66667 2.22464 5.84226 1.80072 6.15482 1.48816C6.46738 1.17559 6.89131 1 7.33333 1H10.6667C11.1087 1 11.5326 1.17559 11.8452 1.48816C12.1577 1.80072 12.3333 2.22464 12.3333 2.66667V4.33333M7.33333 8.5V13.5M10.6667 8.5V13.5" stroke="#6B7280" stroke-width="1.66667" stroke-linecap="round" stroke-linejoin="round"/>
</svg>
