<svg width="50" height="60" viewBox="0 0 50 60" fill="none" xmlns="http://www.w3.org/2000/svg">
<path d="M30.3337 3.3335V14.0002C30.3337 15.4147 30.8956 16.7712 31.8958 17.7714C32.896 18.7716 34.2525 19.3335 35.667 19.3335H46.3337M33.0003 3.3335H9.00033C7.58584 3.3335 6.22928 3.8954 5.22909 4.89559C4.2289 5.89579 3.66699 7.25234 3.66699 8.66683V51.3335C3.66699 52.748 4.2289 54.1045 5.22909 55.1047C6.22928 56.1049 7.58584 56.6668 9.00033 56.6668H41.0003C42.4148 56.6668 43.7714 56.1049 44.7716 55.1047C45.7718 54.1045 46.3337 52.748 46.3337 51.3335V16.6668L33.0003 3.3335Z" stroke="#424CA8" stroke-width="6" stroke-linecap="round" stroke-linejoin="round"/>
</svg>
